<svg width="14" height="10" viewBox="0 0 14 10" fill="none" xmlns="http://www.w3.org/2000/svg">
  <path d="M7.27539 2.24141C7.27539 2.24141 9.263 4.24032 8.67787 7.58616C10.6655 6.7961 11.4373 5.4718 11.6695 4.14524C11.6695 4.14524 12.3526 1.63473 13.3999 0.588867C11.3235 0.908058 11.1094 0.095367 7.27539 2.24141Z" fill="#508EEB"/>
  <path d="M7.6808 8.32426C7.72861 8.06845 8.4936 5.46286 6.97501 3.34398C4.42732 0.532389 0.600098 0.13623 0.600098 0.13623C1.34687 1.57825 1.37192 2.92519 2.19383 5.66887C3.18421 8.51215 6.8384 8.70231 7.10934 8.71363C7.35523 9.10073 7.91758 9.61913 9.20623 9.88852L9.34966 9.20939C8.22267 8.98528 7.81741 8.55969 7.6808 8.32426ZM4.09036 4.79958C3.79438 3.8488 2.97248 2.24832 1.99802 1.40394C1.99802 1.40394 4.8895 2.1623 6.55153 7.54553C4.9874 7.07693 4.31804 5.53078 4.09036 4.79958Z" fill="#508EEB"/>
</svg>
