<svg width="14" height="14" viewBox="0 0 14 14" fill="none" xmlns="http://www.w3.org/2000/svg">
  <path d="M0.666503 1.17301L0.666504 12.8263C0.666504 13.1066 0.892921 13.333 1.17317 13.333L12.8265 13.333C13.1068 13.333 13.3332 13.1066 13.3332 12.8263L13.3332 7.12634C13.3332 7.05667 13.2762 6.99967 13.2065 6.99967L12.3198 6.99967C12.2502 6.99967 12.1932 7.05667 12.1932 7.12634L12.1932 12.193L1.8065 12.193L1.8065 1.80634L6.87317 1.80634C6.94284 1.80634 6.99984 1.74934 6.99984 1.67967L6.99984 0.793008C6.99984 0.723341 6.94284 0.666341 6.87317 0.666341L1.17317 0.666342C0.89292 0.666342 0.666503 0.892758 0.666503 1.17301Z" fill="#508EEB"/>
  <path d="M11.9446 3.15012L12.7711 3.97663C12.7879 3.99337 12.8091 4.00505 12.8323 4.01035C12.8554 4.01565 12.8796 4.01435 12.902 4.00659C12.9244 3.99884 12.9442 3.98495 12.9592 3.96649C12.9741 3.94804 12.9835 3.92577 12.9864 3.90221L13.3189 1.06171C13.3284 0.980959 13.2604 0.911292 13.178 0.920792L10.3375 1.25329C10.233 1.26596 10.1887 1.39421 10.2631 1.46862L11.0928 2.29829L7.03627 6.35479C6.98719 6.40388 6.98719 6.48463 7.03627 6.53371L7.7076 7.20504C7.75669 7.25413 7.83744 7.25413 7.88652 7.20504L11.9446 3.15012Z" fill="#508EEB"/>
</svg>
