<svg width="14" height="14" viewBox="0 0 14 14" fill="none" xmlns="http://www.w3.org/2000/svg">
<path d="M7 0C3.13438 0 0 3.13438 0 7C0 10.8656 3.13438 14 7 14C10.8656 14 14 10.8656 14 7C14 3.13438 10.8656 0 7 0ZM9.25156 7.10781L5.83906 9.59062C5.82035 9.60407 5.7983 9.61209 5.77533 9.61382C5.75236 9.61555 5.72935 9.61091 5.70884 9.60041C5.68834 9.58992 5.67112 9.57397 5.65908 9.55433C5.64705 9.53468 5.64066 9.5121 5.64062 9.48906V4.52656C5.64055 4.50348 5.64687 4.48082 5.65888 4.46111C5.67089 4.4414 5.68812 4.4254 5.70867 4.41488C5.72922 4.40436 5.75228 4.39974 5.7753 4.40153C5.79831 4.40331 5.82038 4.41144 5.83906 4.425L9.25156 6.90625C9.26768 6.91765 9.28084 6.93275 9.28991 6.95029C9.29899 6.96783 9.30373 6.98729 9.30373 7.00703C9.30373 7.02678 9.29899 7.04623 9.28991 7.06377C9.28084 7.08131 9.26768 7.09641 9.25156 7.10781V7.10781Z" fill="#0A84E1"/>
</svg>
