<svg version="1" xmlns="http://www.w3.org/2000/svg" width="682.667" height="682.667" viewBox="0 0 512.000000 512.000000"><path d="M0 256v256h512V0H0v256zM50.3 97.5c53.4 9.4 107.9 36.6 142.8 71.4 11.3 11.3 11.8 12 18.3 25.1 14.4 29.3 18 63.2 10.5 99.9-1.9 9.4-1.9 10.1-.3 12.5 4.1 6.3 17.5 13.7 30.8 17.1 5 1.3 9.1 2.7 9.1 3.1 0 3.7-3 16.4-3.8 16.4-.6 0-4.3-.9-8.4-2-17.2-4.9-30.9-12.5-39.5-21.9l-5.3-5.8-7.5-.6c-25.9-2.1-56.7-12.4-76.3-25.4-9.1-6-21.6-17.9-27.3-25.9-11.3-15.8-15.7-29.6-33.9-106.9-5.2-22-10.5-39.1-15.9-50.8-1.9-4.3-3.2-7.7-2.8-7.7.4 0 4.7.7 9.5 1.5zm309.4 15.8c-9.2 11.3-21.2 33.8-28.8 53.9l-3.2 8.8H315c-18.7 0-27.6 2.8-37.2 11.8-5.3 4.9-8.7 10-11.5 17.2-1.5 3.8-1.8 9.4-2.3 38l-.5 33.5-8.8 4.3c-4.9 2.4-9.1 4.2-9.2 4-.2-.2.1-3.5.7-7.3 1.4-9.7 1.4-36.3-.1-46-2.7-17.4-8.8-37-16.1-51.5-3.5-6.9-13.7-22.4-17.8-27.1l-3.1-3.6 14.2-7.6c27-14.5 51.3-24.6 69.7-28.8 6.5-1.5 14.8-2.2 35.4-2.9 14.8-.5 27.1-1.2 27.4-1.5.3-.3 2.3-.5 4.4-.5h3.8l-4.3 5.3zm107.1 88.8c2.6 1.3 5.4 3.8 7 6.2l2.7 4.1v164.2l-2.7 4.1c-1.6 2.4-4.4 4.9-7 6.2-4.4 2.1-5 2.1-84.3 2.1s-79.9 0-84.3-2.1c-2.6-1.3-5.4-3.8-7-6.2l-2.7-4.1-.3-80c-.2-52.6.1-81.3.7-83.6 1.2-4.2 6.3-9.7 10.6-11.6 2.4-1.1 19.2-1.3 82.9-1.4 79.5 0 80 0 84.4 2.1z"/><path d="M83.4 136.1c18.9 19.9 34.6 47.5 46.3 81.3 9 26 22.9 45.2 41.5 57.3 6.9 4.5 17.4 9 18.4 8 1.6-1.6-14.2-42.2-23.9-61-7.6-14.9-19.3-33.4-28.4-45-8.1-10.3-25.5-27.2-35.2-34.1-7.5-5.4-22.3-13.6-24.5-13.6-.4 0 2.2 3.2 5.8 7.1zM335.7 247.7c-.4.3-.7 4.6-.7 9.5v8.8h95v-19h-46.8c-25.8 0-47.2.3-47.5.7zM335 294.5v9.5h95v-19h-95v9.5zM335 332.5v9.5h66v-19h-66v9.5z"/></svg>