<svg width="24" height="25" viewBox="0 0 24 25" fill="none" xmlns="http://www.w3.org/2000/svg">
<path d="M20.0297 7.24984L14.9859 2.20609C14.8453 2.06547 14.6555 1.98578 14.4562 1.98578H4.5C4.08516 1.98578 3.75 2.32094 3.75 2.73578V22.2358C3.75 22.6506 4.08516 22.9858 4.5 22.9858H19.5C19.9148 22.9858 20.25 22.6506 20.25 22.2358V7.78187C20.25 7.58265 20.1703 7.39047 20.0297 7.24984ZM18.5203 8.1264H14.1094V3.71547L18.5203 8.1264ZM18.5625 21.2983H5.4375V3.67328H12.5156V8.73578C12.5156 8.99685 12.6193 9.24723 12.8039 9.43184C12.9885 9.61644 13.2389 9.72015 13.5 9.72015H18.5625V21.2983Z" fill="#46D49E"/>
</svg>
