<svg width="35" height="35" viewBox="0 0 35 35" fill="none" xmlns="http://www.w3.org/2000/svg">
<path d="M29.5312 10.529L22.2396 3.23734C22.0346 3.03216 21.7566 2.91676 21.4666 2.9165H6.92706C6.63816 2.92028 6.36215 3.03673 6.15784 3.24103C5.95354 3.44534 5.83709 3.72135 5.83331 4.01025V32.4478C5.83331 32.7378 5.94855 33.016 6.15366 33.2212C6.35878 33.4263 6.63698 33.5415 6.92706 33.5415H28.8021C29.0921 33.5415 29.3703 33.4263 29.5755 33.2212C29.7806 33.016 29.8958 32.7378 29.8958 32.4478V11.3165C29.8903 11.1676 29.8553 11.0213 29.7927 10.8861C29.7301 10.7509 29.6412 10.6295 29.5312 10.529V10.529ZM27.3291 11.8123H20.9416V5.38109L27.3291 11.8123ZM27.3291 31.0186H8.2979V5.32275H18.6229V12.7019C18.6229 13.0887 18.7765 13.4596 19.05 13.7331C19.3235 14.0066 19.6945 14.1603 20.0812 14.1603H27.4604L27.3291 31.0186Z" fill="#52B2A4"/>
</svg>
