<svg width="24" height="25" viewBox="0 0 24 25" fill="none" xmlns="http://www.w3.org/2000/svg">
<path d="M19.3168 16.8897C18.7301 16.3026 18.0446 15.8234 17.2918 15.4741C18.3535 14.6139 19.0308 13.3014 19.0308 11.8295C19.0308 9.23265 16.8652 7.10219 14.2683 7.14203C11.7113 7.18187 9.65113 9.26547 9.65113 11.8295C9.65113 13.3014 10.3308 14.6139 11.3902 15.4741C10.6372 15.8231 9.95165 16.3023 9.3652 16.8897C8.08551 18.1717 7.35895 19.8639 7.31207 21.6686C7.31145 21.6936 7.31583 21.7185 7.32498 21.7418C7.33412 21.7651 7.34783 21.7863 7.3653 21.8042C7.38278 21.8221 7.40366 21.8364 7.42672 21.8461C7.44978 21.8558 7.47455 21.8608 7.49957 21.8608H8.81207C8.91285 21.8608 8.99723 21.7811 8.99957 21.6803C9.0441 20.3209 9.59488 19.0483 10.5629 18.0827C11.0582 17.5847 11.6474 17.1899 12.2963 16.9212C12.9452 16.6524 13.641 16.5151 14.3433 16.517C15.7707 16.517 17.1136 17.0725 18.1238 18.0827C19.0894 19.0483 19.6402 20.3209 19.6871 21.6803C19.6894 21.7811 19.7738 21.8608 19.8746 21.8608H21.1871C21.2121 21.8608 21.2369 21.8558 21.2599 21.8461C21.283 21.8364 21.3039 21.8221 21.3213 21.8042C21.3388 21.7863 21.3525 21.7651 21.3617 21.7418C21.3708 21.7185 21.3752 21.6936 21.3746 21.6686C21.3277 19.8639 20.6011 18.1717 19.3168 16.8897ZM14.3433 14.8295C13.5418 14.8295 12.7871 14.5178 12.2222 13.9506C11.9388 13.6694 11.7148 13.3339 11.5638 12.9643C11.4128 12.5946 11.3378 12.1983 11.3433 11.7991C11.3504 11.0303 11.6574 10.2873 12.1941 9.73656C12.7566 9.16 13.5089 8.8389 14.3129 8.82953C15.1074 8.8225 15.8785 9.13187 16.4457 9.68734C17.0269 10.2569 17.3457 11.0186 17.3457 11.8295C17.3457 12.6311 17.0339 13.3834 16.4668 13.9506C16.1885 14.2302 15.8575 14.4519 15.4931 14.6027C15.1286 14.7536 14.7378 14.8307 14.3433 14.8295ZM8.47223 12.4483C8.45113 12.2444 8.43941 12.0381 8.43941 11.8295C8.43941 11.4569 8.47457 11.0936 8.5402 10.7397C8.5566 10.6553 8.51207 10.5686 8.43473 10.5334C8.11598 10.3905 7.82301 10.1936 7.56988 9.94515C7.27162 9.65595 7.03691 9.30775 6.88074 8.92277C6.72457 8.53779 6.65036 8.12448 6.66285 7.70922C6.68395 6.95687 6.98629 6.24203 7.51363 5.70297C8.09254 5.11 8.87066 4.78656 9.69801 4.79594C10.4457 4.80297 11.1675 5.09125 11.7136 5.60219C11.8988 5.77562 12.0582 5.96781 12.1918 6.17406C12.2386 6.24672 12.33 6.27719 12.4097 6.24906C12.8222 6.10609 13.2582 6.00531 13.7058 5.95844C13.8371 5.94437 13.9121 5.80375 13.8535 5.68656C13.0918 4.17953 11.5355 3.1389 9.73551 3.11078C7.13629 3.07094 4.97066 5.2014 4.97066 7.79594C4.97066 9.26781 5.64801 10.5803 6.70973 11.4405C5.96441 11.785 5.2777 12.2608 4.68238 12.8561C3.39801 14.1381 2.67145 15.8303 2.62457 17.6373C2.62394 17.6624 2.62833 17.6872 2.63747 17.7105C2.64662 17.7338 2.66033 17.7551 2.6778 17.773C2.69528 17.7909 2.71616 17.8051 2.73922 17.8148C2.76228 17.8245 2.78705 17.8295 2.81207 17.8295H4.12691C4.2277 17.8295 4.31207 17.7498 4.31441 17.6491C4.35895 16.2897 4.90973 15.017 5.8777 14.0514C6.56676 13.3623 7.41051 12.8842 8.3316 12.6522C8.42301 12.6287 8.48395 12.542 8.47223 12.4483Z" fill="#03C77C"/>
</svg>
