<svg width="35" height="36" viewBox="0 0 35 36" fill="none" xmlns="http://www.w3.org/2000/svg">
<rect y="0.551025" width="34.898" height="34.898" fill="white"/>
<path d="M17.5944 6.25312C23.0725 6.25312 27.534 7.83443 27.534 9.7546V10.037C27.534 11.9571 23.0725 13.482 17.5944 13.482C12.0598 13.482 7.65467 11.9571 7.65467 10.037V9.7546C7.65467 7.83443 12.0598 6.25312 17.5944 6.25312ZM27.534 13.9338V15.4022C27.534 17.3223 23.0725 18.9036 17.5944 18.9036C12.0598 18.9036 7.65467 17.3223 7.65467 15.4022V13.9338C9.74426 15.4586 13.6975 16.1928 17.5944 16.1928C21.4347 16.1928 25.388 15.4586 27.534 13.9338ZM27.534 19.3554V20.8238C27.534 22.744 23.0725 24.3253 17.5944 24.3253C12.0598 24.3253 7.65467 22.744 7.65467 20.8238V19.3554C9.74426 20.8803 13.6975 21.6145 17.5944 21.6145C21.4347 21.6145 25.388 20.8803 27.534 19.3554ZM27.534 24.7771V26.3019C27.534 28.2221 23.0725 29.7469 17.5944 29.7469C12.0598 29.7469 7.65467 28.2221 7.65467 26.3019V24.7771C9.74426 26.3019 13.6975 27.0361 17.5944 27.0361C21.4347 27.0361 25.388 26.3019 27.534 24.7771ZM17.5944 3.5423C12.681 3.5423 4.94385 4.89771 4.94385 9.7546V26.3019C4.94385 31.1588 12.681 32.4577 17.5944 32.4577C22.4512 32.4577 30.2449 31.1588 30.2449 26.3019V9.7546C30.2449 4.89771 22.4512 3.5423 17.5944 3.5423Z" fill="#11B5A4"/>
</svg>
