<svg width="35" height="36" viewBox="0 0 35 36" fill="none" xmlns="http://www.w3.org/2000/svg">
<rect y="0.551025" width="34.898" height="34.898" fill="white"/>
<path d="M6.43652 22.8018C5.14407 24.094 4.50541 27.3267 4.68162 30.7664C8.13627 30.9443 11.36 30.299 12.6473 29.0117C14.6611 26.9984 14.7905 24.3139 12.9628 22.4863C11.1351 20.659 8.45014 20.7884 6.43652 22.8018ZM10.5169 27.002C10.0877 27.4311 9.01314 27.6461 7.86175 27.5868C7.80308 26.4404 8.0159 25.3629 8.44672 24.9321C9.11789 24.2611 10.0127 24.2179 10.6219 24.827C11.2311 25.4362 11.188 26.3309 10.5169 27.002ZM29.9029 6.16861C29.8442 5.89555 29.5536 5.60551 29.2806 5.54713C27.6763 5.20407 26.4191 5.20407 25.1672 5.20407C20.008 5.20407 16.9139 7.96335 14.6042 11.602H9.39573C8.58115 11.602 7.61632 12.198 7.25199 12.9265L4.78168 17.8649C4.70532 18.0333 4.66261 18.215 4.65594 18.3999C4.65605 18.718 4.7825 19.0231 5.00749 19.2481C5.23248 19.473 5.53759 19.5994 5.85575 19.5995H11.0517C11.6819 19.5994 12.306 19.7235 12.8882 19.9646C13.4704 20.2057 13.9995 20.5592 14.4451 21.0048C14.8908 21.4503 15.2443 21.9793 15.4855 22.5615C15.7267 23.1437 15.8508 23.7678 15.8509 24.3979V29.5963C15.851 29.9144 15.9774 30.2195 16.2024 30.4445C16.4274 30.6694 16.7325 30.7958 17.0507 30.7959C17.2355 30.7891 17.4172 30.7464 17.5857 30.6702L22.5215 28.2006C23.2493 27.8365 23.8448 26.8728 23.8448 26.0591V20.8389C27.473 18.524 30.2437 15.4203 30.2437 10.2876C30.2484 9.03049 30.2484 7.77337 29.9029 6.16861ZM22.554 18.8163C21.2878 19.6242 22.1788 19.1532 17.5898 21.4259C16.8677 19.8463 15.6005 18.5799 14.0204 17.8587C16.2883 13.276 15.8147 14.1724 16.6302 12.8877C18.9814 9.18366 21.5345 7.60331 25.1672 7.60331C26.0494 7.60331 26.8438 7.60331 27.7351 7.71567C27.8503 8.62856 27.8472 9.43856 27.8441 10.2876C27.8441 13.8999 26.262 16.4506 22.554 18.8163ZM23.0498 10.4024C22.6543 10.4025 22.2678 10.5198 21.939 10.7395C21.6103 10.9592 21.3541 11.2715 21.2028 11.6369C21.0515 12.0022 21.012 12.4042 21.0891 12.792C21.1663 13.1798 21.3568 13.5361 21.6364 13.8156C21.916 14.0952 22.2723 14.2856 22.6601 14.3627C23.0479 14.4399 23.4499 14.4003 23.8152 14.2489C24.1806 14.0976 24.4928 13.8413 24.7125 13.5125C24.9322 13.1837 25.0494 12.7972 25.0494 12.4018C25.0491 11.8715 24.8384 11.3631 24.4634 10.9882C24.0885 10.6133 23.58 10.4026 23.0498 10.4024Z" fill="#11B5A4"/>
</svg>
