<svg width="36" height="36" viewBox="0 0 36 36" fill="none" xmlns="http://www.w3.org/2000/svg">
<rect x="0.734863" y="0.551025" width="34.898" height="34.898" fill="white"/>
<path d="M14.8685 23.5837H13.1236C12.8182 23.5837 12.6001 23.8454 12.6001 24.1071V25.852C12.6001 26.1574 12.8182 26.3755 13.1236 26.3755H14.8685C15.1302 26.3755 15.392 26.1574 15.392 25.852V24.1071C15.392 23.8454 15.1302 23.5837 14.8685 23.5837ZM14.8685 15.2082H13.1236C12.8182 15.2082 12.6001 15.4699 12.6001 15.7316V17.4765C12.6001 17.7819 12.8182 18 13.1236 18H14.8685C15.1302 18 15.392 17.7819 15.392 17.4765V15.7316C15.392 15.4699 15.1302 15.2082 14.8685 15.2082ZM10.6807 15.2082H8.93583C8.63048 15.2082 8.41236 15.4699 8.41236 15.7316V17.4765C8.41236 17.7819 8.63048 18 8.93583 18H10.6807C10.9425 18 11.2042 17.7819 11.2042 17.4765V15.7316C11.2042 15.4699 10.9425 15.2082 10.6807 15.2082ZM10.6807 23.5837H8.93583C8.63048 23.5837 8.41236 23.8454 8.41236 24.1071V25.852C8.41236 26.1574 8.63048 26.3755 8.93583 26.3755H10.6807C10.9425 26.3755 11.2042 26.1574 11.2042 25.852V24.1071C11.2042 23.8454 10.9425 23.5837 10.6807 23.5837ZM10.6807 19.3959H8.93583C8.63048 19.3959 8.41236 19.6576 8.41236 19.9194V21.6643C8.41236 21.9696 8.63048 22.1877 8.93583 22.1877H10.6807C10.9425 22.1877 11.2042 21.9696 11.2042 21.6643V19.9194C11.2042 19.6576 10.9425 19.3959 10.6807 19.3959ZM14.8685 19.3959H13.1236C12.8182 19.3959 12.6001 19.6576 12.6001 19.9194V21.6643C12.6001 21.9696 12.8182 22.1877 13.1236 22.1877H14.8685C15.1302 22.1877 15.392 21.9696 15.392 21.6643V19.9194C15.392 19.6576 15.1302 19.3959 14.8685 19.3959ZM27.4318 23.5837H25.6869C25.3815 23.5837 25.1634 23.8454 25.1634 24.1071V25.852C25.1634 26.1574 25.3815 26.3755 25.6869 26.3755H27.4318C27.6935 26.3755 27.9552 26.1574 27.9552 25.852V24.1071C27.9552 23.8454 27.6935 23.5837 27.4318 23.5837ZM27.4318 19.3959H25.6869C25.3815 19.3959 25.1634 19.6576 25.1634 19.9194V21.6643C25.1634 21.9696 25.3815 22.1877 25.6869 22.1877H27.4318C27.6935 22.1877 27.9552 21.9696 27.9552 21.6643V19.9194C27.9552 19.6576 27.6935 19.3959 27.4318 19.3959ZM31.096 15.2082H26.5593V7.87958C26.5593 7.31249 26.0795 6.83264 25.5124 6.83264H16.4389C15.8282 6.83264 15.392 7.31249 15.392 7.87958V11.0204H13.996V7.5306C13.996 7.18162 13.6471 6.83264 13.2981 6.83264H12.6001C12.2075 6.83264 11.9022 7.18162 11.9022 7.5306V11.0204H9.11032V7.5306C9.11032 7.18162 8.76134 6.83264 8.41236 6.83264H7.71441C7.3218 6.83264 7.01645 7.18162 7.01645 7.5306V11.0204H5.27155C4.66083 11.0204 4.22461 11.5002 4.22461 12.0673V28.4694C4.22461 28.862 4.52997 29.1673 4.92257 29.1673H5.62053C5.96951 29.1673 6.31849 28.862 6.31849 28.4694V13.1143H17.4858V8.92652H24.4654V17.302H30.0491V28.4694C30.0491 28.862 30.3545 29.1673 30.7471 29.1673H31.445C31.794 29.1673 32.143 28.862 32.143 28.4694V16.2551C32.143 15.688 31.6631 15.2082 31.096 15.2082ZM21.8481 11.0204H20.1032C19.7978 11.0204 19.5797 11.2821 19.5797 11.5439V13.2888C19.5797 13.5941 19.7978 13.8122 20.1032 13.8122H21.8481C22.1098 13.8122 22.3715 13.5941 22.3715 13.2888V11.5439C22.3715 11.2821 22.1098 11.0204 21.8481 11.0204ZM21.8481 19.3959H20.1032C19.7978 19.3959 19.5797 19.6576 19.5797 19.9194V21.6643C19.5797 21.9696 19.7978 22.1877 20.1032 22.1877H21.8481C22.1098 22.1877 22.3715 21.9696 22.3715 21.6643V19.9194C22.3715 19.6576 22.1098 19.3959 21.8481 19.3959ZM21.8481 15.2082H20.1032C19.7978 15.2082 19.5797 15.4699 19.5797 15.7316V17.4765C19.5797 17.7819 19.7978 18 20.1032 18H21.8481C22.1098 18 22.3715 17.7819 22.3715 17.4765V15.7316C22.3715 15.4699 22.1098 15.2082 21.8481 15.2082Z" fill="#11B5A4"/>
</svg>
