<svg width="36" height="36" viewBox="0 0 36 36" fill="none" xmlns="http://www.w3.org/2000/svg">
<path fill-rule="evenodd" clip-rule="evenodd" d="M18 5.7002C22.8 5.7002 26.85 8.7002 28.5 12.9002C31.5 13.6502 33.75 16.5001 33.75 19.6501C33.75 23.5501 30.6 26.7001 26.7 26.7001H25.35C25.2 26.7001 25.05 26.5501 25.05 26.4001V24.3001C25.05 24.1501 25.2 24.0001 25.35 24.0001H26.7C27.3 24.0001 27.9 24.0001 28.2 23.7001C28.65 23.5501 29.1 23.2501 29.55 22.8001C30.45 21.9001 30.9 20.8501 30.9 19.6501C30.9 17.7001 29.55 15.9001 27.6 15.4501L26.25 15.1501L25.8 13.8002C25.5 13.0502 25.2 12.3002 24.6 11.5502C24.15 10.8002 23.55 10.2002 22.8 9.7502C21.3 8.8502 19.65 8.2502 17.85 8.2502C16.05 8.2502 14.4 8.7002 12.9 9.7502C12.7 9.95019 12.4833 10.1502 12.2667 10.3502C11.8333 10.7502 11.4 11.1502 11.1 11.5502C10.65 12.3002 10.2 13.0502 9.9 13.8002L9.45 15.1501L8.1 15.4501C7.2 15.6001 6.45 16.2001 5.85 16.9501C5.25 17.7001 4.95 18.6001 4.95 19.5001C4.95 20.7001 5.25 21.7501 6.15 22.6501C7.05 23.5501 8.1 24.0001 9.3 24.0001H10.65C10.8 24.0001 10.95 24.1501 10.95 24.3001V26.4001C10.95 26.5501 10.8 26.7001 10.65 26.7001H9.3C5.4 26.7001 2.25 23.5501 2.25 19.6501C2.25 16.5001 4.5 13.6502 7.5 12.9002C9.15 8.7002 13.2 5.7002 18 5.7002ZM16.65 24.9001L15.3 30.6001L23.55 22.3501H19.65L23.25 17.7001H17.7L13.5 24.9001H16.65Z" fill="#11B5A4"/>
</svg>
