<svg width="35" height="36" viewBox="0 0 35 36" fill="none" xmlns="http://www.w3.org/2000/svg">
<g clip-path="url(#clip0)">
<rect x="0.102051" y="0.551025" width="34.898" height="34.898" fill="white"/>
<path fill-rule="evenodd" clip-rule="evenodd" d="M8.7279 22.2954V13.5077H6.39585V16.8997H3.59767V13.5077H1.26562V22.2954H3.59767V18.9034H6.39585V22.2954H8.7279Z" fill="#11B5A4"/>
<path fill-rule="evenodd" clip-rule="evenodd" d="M18.3662 13.5077V22.2954H19.6102H20.6983H24.1184V20.2917H20.6983V13.5077H18.3662Z" fill="#11B5A4"/>
<path fill-rule="evenodd" clip-rule="evenodd" d="M16.5003 15.5114V13.5077H12.9243H11.9921H10.5923V22.2954H11.9921H12.9243H16.5003V20.2917H12.9243V18.9034H15.7225V16.8997H12.9243V15.5114H16.5003Z" fill="#11B5A4"/>
<path fill-rule="evenodd" clip-rule="evenodd" d="M33.7424 13.5077H31.8268L30.0189 18.2606L28.2109 13.5077H26.2953H25.6733V22.2954H28.0054V18.9034L27.5379 16.7451L29.4231 21.7305H30.6146L32.4985 16.7451L32.0323 18.9034V22.2954H34.3644V13.5077H33.7424Z" fill="#11B5A4"/>
<path fill-rule="evenodd" clip-rule="evenodd" d="M7.12988 11.4902L8.72963 12.4476C10.6104 9.33034 14.004 7.42202 17.6668 7.42202C21.3297 7.42202 24.7233 9.33034 26.6041 12.4476L28.2038 11.4902C27.5177 10.3548 26.6489 9.33833 25.6318 8.4812C26.1717 8.08089 26.645 7.59906 27.0343 7.05327C28.0438 5.67596 28.4134 4.23436 27.8618 3.83361C27.3101 3.43286 26.0372 4.22615 25.0291 5.60347C24.6245 6.13977 24.308 6.73619 24.0913 7.37059C22.4374 6.3624 20.5666 5.75598 18.6315 5.60073C18.829 4.96379 18.9253 4.30024 18.917 3.63392C18.917 1.93108 18.3654 0.551025 17.6758 0.551025C16.9863 0.551025 16.4346 1.93108 16.4346 3.63392C16.423 4.30164 16.5166 4.96707 16.7118 5.6062C14.7758 5.76102 12.904 6.36746 11.2492 7.37606C11.0314 6.74217 10.7149 6.14594 10.3114 5.60894C9.30333 4.23162 8.03457 3.4397 7.47879 3.83908C6.92302 4.23846 7.28986 5.68143 8.29935 7.05874C8.68848 7.6055 9.16175 8.08826 9.70189 8.4894C8.68547 9.34406 7.81669 10.3577 7.12988 11.4902Z" fill="#11B5A4"/>
<path fill-rule="evenodd" clip-rule="evenodd" d="M25.6313 27.0209C26.4389 26.3403 27.1542 25.5587 27.7593 24.6958L26.2671 23.5865C24.3245 26.4076 21.101 28.0936 17.6565 28.0904C14.2119 28.0871 10.9918 26.3949 9.05462 23.5701L7.50452 24.5945C8.12299 25.498 8.86201 26.3142 9.70142 27.0209C9.16188 27.4217 8.68868 27.9034 8.29888 28.4488C7.28938 29.8262 6.91979 31.2678 7.47832 31.6685C8.03685 32.0693 9.30286 31.276 10.311 29.8986C10.7145 29.3622 11.0309 28.7664 11.2488 28.1329C12.9037 29.1411 14.7754 29.747 16.7113 29.9014C16.5138 30.5383 16.4175 31.2019 16.4259 31.8682C16.4259 33.571 16.9775 34.9511 17.6671 34.9511C18.3566 34.9511 18.9082 33.571 18.9082 31.8682C18.9166 31.2019 18.8203 30.5383 18.6228 29.9014C20.5578 29.7466 22.4285 29.1406 24.0826 28.1329C24.2993 28.7669 24.6158 29.3628 25.0204 29.8986C26.0285 31.276 27.2973 32.0693 27.853 31.6685C28.4088 31.2678 28.042 29.8262 27.0256 28.4488C26.6383 27.904 26.1679 27.4223 25.6313 27.0209Z" fill="#11B5A4"/>
</g>
<defs>
<clipPath id="clip0">
<rect x="0.102051" y="0.551025" width="34.898" height="34.898" fill="white"/>
</clipPath>
</defs>
</svg>
