<svg width="35" height="35" viewBox="0 0 35 35" fill="none" xmlns="http://www.w3.org/2000/svg">
<path d="M27.7789 13.2286C26.3105 8.95714 22.2316 6 17.5 6C12.7684 6 8.68947 8.95714 7.22105 13.2286C4.28421 14.05 2 16.6786 2 19.9643C2 23.7429 5.1 26.8643 8.85263 26.8643H10.3211C10.4842 26.8643 10.6474 26.7 10.6474 26.5357V24.4C10.6474 24.2357 10.4842 24.0714 10.3211 24.0714H8.85263C7.71053 24.0714 6.56842 23.5786 5.75263 22.7571C4.93684 21.9357 4.44737 20.7857 4.61053 19.6357C4.61053 18.65 4.93684 17.8286 5.58947 17.1714C6.07895 16.5143 6.89474 16.0214 7.87368 15.8571L9.17895 15.5286L9.66842 14.2143C9.83158 13.3929 10.3211 12.5714 10.8105 11.9143C11.3 11.2571 11.9526 10.7643 12.6053 10.2714C14.0737 9.28571 15.7053 8.79286 17.5 8.79286C19.2947 8.79286 20.9263 9.28571 22.3947 10.2714C23.0474 10.7643 23.7 11.4214 24.1895 12.0786C24.6789 12.7357 25.1684 13.5571 25.4947 14.2143L25.9842 15.5286L27.2895 15.8571C29.0842 16.35 30.5526 18.1571 30.5526 19.9643C30.5526 21.1143 30.0632 22.2643 29.2474 23.0857C28.9211 23.4143 28.4316 23.7429 27.7789 24.0714C27.2895 24.2357 26.6368 24.4 26.1474 24.4H24.6789C24.5158 24.4 24.3526 24.5643 24.3526 24.7286V26.8643C24.3526 27.0286 24.5158 27.1929 24.6789 27.1929H26.1474C29.9 27.1929 33 24.0714 33 20.2929C33 16.6786 30.8789 14.05 27.7789 13.2286ZM18.3158 19.4714C18.3158 19.4714 20.7632 21.9357 20.1105 26.0429C22.5579 25.0571 23.5368 23.4143 23.8632 21.7714C23.8632 21.7714 24.6789 18.65 25.9842 17.3357C23.2105 17.8286 23.0474 16.8429 18.3158 19.4714ZM18.8053 27.0286C18.8053 26.7 19.7842 23.4143 17.9895 20.7857C14.8895 17.3357 10.1579 16.8429 10.1579 16.8429C11.1368 18.65 11.1368 20.2929 12.1158 23.7429C13.4211 27.1929 17.8263 27.5214 18.1526 27.5214C18.4789 28.0143 19.1316 28.6714 20.7632 29L20.9263 28.1786C19.4579 27.85 18.9684 27.3571 18.8053 27.0286ZM14.4 22.5929C14.0737 21.4429 13.0947 19.4714 11.7895 18.3214C11.7895 18.3214 15.3789 19.3071 17.3368 26.0429C15.5421 25.3857 14.7263 23.5786 14.4 22.5929Z" fill="#52B2A4"/>
</svg>
