<svg width="36" height="36" viewBox="0 0 36 36" fill="none" xmlns="http://www.w3.org/2000/svg">
<rect x="0.367188" y="0.551025" width="34.898" height="34.898" fill="white"/>
<path d="M13.3377 27.7237C14.3415 27.7237 15.127 27.5491 15.8253 27.3746C16.3053 27.2873 16.6108 26.8509 16.6108 26.3708V24.9743C17.0472 24.7998 17.44 24.5816 17.7891 24.3197L18.9674 24.9743C19.3602 25.2362 19.9275 25.1489 20.233 24.7998C21.4549 23.5342 22.3714 22.1813 22.7205 20.392C22.8078 19.9993 22.6332 19.5629 22.2404 19.301L21.1058 18.6028C21.1494 18.1227 21.1494 17.6863 21.1058 17.2499L22.2404 16.508C22.6332 16.2898 22.8078 15.8534 22.7205 15.417C22.3714 13.5841 21.3676 12.2749 20.233 11.0529C19.9275 10.7038 19.3602 10.6165 18.9674 10.8347L17.7891 11.533C17.44 11.2711 17.0472 11.0529 16.6108 10.8347V9.5255C16.6108 9.04546 16.3053 8.60905 15.8253 8.52177C13.8614 8.04172 12.7704 8.04172 10.8066 8.52177C10.3702 8.60905 10.021 9.04546 10.021 9.5255V10.8347C9.62827 11.0093 9.2355 11.2711 8.84274 11.533L7.66444 10.8347C7.27167 10.6165 6.74798 10.6602 6.39886 11.0529C4.87143 12.6676 4.47866 13.5841 3.91134 15.3297C3.73677 15.8098 3.95498 16.3335 4.39138 16.5517L5.56968 17.2499C5.52604 17.6863 5.52604 18.1227 5.56968 18.6028L4.39138 19.2574C3.95498 19.4756 3.73677 19.9993 3.91134 20.4793C4.47866 22.225 4.87143 23.1414 6.39886 24.7998C6.74798 25.1489 7.27167 25.1925 7.66444 24.9743L8.84274 24.2761C9.2355 24.5379 9.62827 24.7998 10.021 24.9743V26.3708C10.021 26.8509 10.3702 27.2436 10.8066 27.3746C11.5048 27.5491 12.2904 27.7237 13.3377 27.7237ZM12.1158 25.498V23.5342L11.4175 23.2723C10.7629 23.0541 10.152 22.705 9.62827 22.2686L9.06094 21.7885L7.35895 22.7486C6.83526 22.1377 6.4425 21.3958 6.13701 20.6539L7.839 19.6938L7.70808 18.9519C7.57716 18.2536 7.57716 17.5554 7.70808 16.8571L7.839 16.1589L6.13701 15.1552C6.4425 14.4133 6.83526 13.715 7.35895 13.0604L9.06094 14.0641L9.62827 13.5841C10.152 13.104 10.7629 12.7549 11.4175 12.5367L12.1158 12.2749V10.311C12.9013 10.2238 13.7305 10.2238 14.516 10.311V12.2749L15.2143 12.5367C15.8689 12.7549 16.4799 13.104 17.0036 13.5841L17.5709 14.0641L19.2729 13.0604C19.7966 13.715 20.1893 14.4133 20.4948 15.1552L18.7928 16.1153L18.9237 16.8571C19.0547 17.5554 19.0547 18.2536 18.9237 18.9519L18.7928 19.6938L20.4948 20.6539C20.1893 21.3958 19.7966 22.094 19.2729 22.7486L17.5709 21.7449L17.0036 22.225C16.4799 22.705 15.8689 23.0541 15.2143 23.2723L14.516 23.5342V25.498C13.7305 25.6289 12.9013 25.6289 12.1158 25.498ZM13.2941 21.7885C14.2978 21.7885 15.2579 21.3958 16.0435 20.6539C17.5272 19.1701 17.5272 16.7262 16.0435 15.1988C14.516 13.715 12.0722 13.715 10.5884 15.1988C9.06094 16.7262 9.06094 19.1701 10.5884 20.6539C11.3303 21.3958 12.334 21.7885 13.2941 21.7885ZM13.2941 16.1589C13.7305 16.1589 14.2105 16.3335 14.5597 16.6826C15.2143 17.3808 15.2143 18.4719 14.5597 19.1701C13.8614 19.8684 12.7268 19.8684 12.0722 19.1701C11.3739 18.4719 11.3739 17.3808 12.0722 16.6826C12.4213 16.3335 12.8577 16.1589 13.2941 16.1589ZM31.7105 10.5292C31.6668 10.311 31.4486 10.0928 31.1868 10.0928H30.4885C30.3576 9.70007 30.0958 9.26366 29.8339 8.95817L30.1831 8.3472C30.2703 8.129 30.2267 7.82351 30.0521 7.64895C29.6594 7.34347 29.1793 7.08162 28.6993 6.86342C28.4374 6.77614 28.1756 6.86342 28.0447 7.12526L27.6955 7.69259C27.2591 7.64895 26.7791 7.64895 26.3427 7.69259L25.9935 7.12526C25.8626 6.86342 25.6008 6.77614 25.3389 6.86342C24.8589 7.08162 24.3788 7.34347 23.9861 7.64895C23.7679 7.82351 23.7242 8.129 23.8551 8.3472L24.2043 8.95817C23.8988 9.26366 23.6806 9.70007 23.5497 10.0928H22.8514C22.5896 10.0928 22.3714 10.311 22.3277 10.5729C22.2404 11.0966 22.2404 11.6203 22.3277 12.1439C22.3714 12.4058 22.5896 12.5804 22.8514 12.5804H23.5497C23.6806 13.0168 23.8988 13.4095 24.2043 13.7587L23.8551 14.3696C23.7242 14.5878 23.7679 14.8497 23.9861 15.0242C24.3788 15.3734 24.8589 15.6352 25.3389 15.8098C25.6008 15.897 25.8626 15.8098 25.9935 15.5916L26.3427 14.9806C26.7791 15.0679 27.2591 15.0679 27.6955 14.9806L28.0447 15.5916C28.1756 15.8098 28.4374 15.897 28.6993 15.8098C29.1793 15.6352 29.6594 15.3734 30.0521 15.0242C30.2267 14.8497 30.314 14.5878 30.1831 14.3696L29.8339 13.7587C30.0958 13.4095 30.3576 13.0168 30.4885 12.5804H31.1868C31.4486 12.5804 31.6668 12.4058 31.7105 12.1439C31.7978 11.5766 31.7978 11.0529 31.7105 10.5292ZM26.9973 12.7549C26.2554 12.7549 25.6008 12.1003 25.6008 11.3584C25.6008 10.5729 26.2554 9.96191 26.9973 9.96191C27.7828 9.96191 28.3938 10.5729 28.3938 11.3584C28.3938 12.1003 27.7828 12.7549 26.9973 12.7549ZM31.7105 23.8833C31.6668 23.6215 31.4486 23.4469 31.1868 23.4469H30.4885C30.3576 23.0105 30.0958 22.6177 29.8339 22.2686L30.1831 21.6576C30.2703 21.4394 30.2267 21.1776 30.0521 21.003C29.6594 20.6539 29.1793 20.392 28.6556 20.2175C28.4374 20.1302 28.1756 20.2175 28.0447 20.4357L27.6955 21.0467C27.2591 20.9594 26.7791 20.9594 26.3427 21.0467L25.9935 20.4357C25.8626 20.2175 25.6008 20.1302 25.3389 20.2175C24.8589 20.392 24.3788 20.6539 23.9861 21.003C23.7679 21.1776 23.7242 21.4394 23.8551 21.6576L24.2043 22.2686C23.8988 22.6177 23.6806 23.0105 23.5497 23.4469H22.8078C22.5896 23.4469 22.3277 23.6215 22.3277 23.8833C22.2404 24.407 22.2404 24.9743 22.3277 25.4544C22.3714 25.7162 22.5896 25.8908 22.8078 25.8908H23.5497C23.6806 26.3272 23.8988 26.7199 24.2043 27.0691L23.8551 27.68C23.7242 27.8982 23.7679 28.2037 23.9861 28.3347C24.3788 28.6838 24.8589 28.9456 25.3389 29.1638C25.6008 29.2511 25.8626 29.1638 25.9935 28.902L26.3427 28.291C26.7791 28.3783 27.2591 28.3783 27.6955 28.291L28.0447 28.902C28.1756 29.1202 28.4374 29.2511 28.6556 29.1638C29.1793 28.9456 29.6594 28.6838 30.0521 28.3347C30.2267 28.2037 30.314 27.8982 30.1831 27.68L29.8339 27.0691C30.0958 26.7199 30.3576 26.3272 30.4885 25.8908H31.1868C31.4486 25.8908 31.6668 25.7162 31.7105 25.4544C31.7978 24.9307 31.7978 24.407 31.7105 23.8833ZM26.9973 26.0653C26.2554 26.0653 25.6008 25.4544 25.6008 24.6688C25.6008 23.9269 26.2554 23.2723 26.9973 23.2723C27.7828 23.2723 28.3938 23.9269 28.3938 24.6688C28.3938 25.4544 27.7828 26.0653 26.9973 26.0653Z" fill="#11B5A4"/>
</svg>
