<svg width="35" height="35" viewBox="0 0 35 35" fill="none" xmlns="http://www.w3.org/2000/svg">
<path d="M30.0781 3.82812C29.9482 3.82812 29.8149 3.85205 29.6816 3.90674L9.98047 11.8228H4.375C4.07422 11.8228 3.82812 12.0757 3.82812 12.3901V22.6099C3.82812 22.9243 4.07422 23.1772 4.375 23.1772H7.85107C7.72461 23.5737 7.65625 23.9941 7.65625 24.4214C7.65625 26.6738 9.49512 28.5059 11.7578 28.5059C13.6514 28.5059 15.2476 27.2207 15.7192 25.4844L29.6851 31.0967C29.8184 31.1479 29.9517 31.1753 30.0815 31.1753C30.6592 31.1753 31.1753 30.6899 31.1753 30.0405V4.96289C31.1719 4.31348 30.6592 3.82812 30.0781 3.82812ZM11.7578 26.0552C10.8521 26.0552 10.1172 25.3237 10.1172 24.4214C10.1172 24.0386 10.2505 23.6729 10.4932 23.3823L13.395 24.5479C13.3267 25.3887 12.6191 26.0552 11.7578 26.0552V26.0552ZM28.7109 28.0513L10.8965 20.894L10.4556 20.7163H6.28906V14.2837H10.4556L10.8965 14.106L28.7109 6.94873V28.0513V28.0513Z" fill="#52B2A4"/>
</svg>
