<svg width="36" height="36" viewBox="0 0 36 36" fill="none" xmlns="http://www.w3.org/2000/svg">
<g clip-path="url(#clip0)">
<rect x="0.734863" y="0.551025" width="34.898" height="34.898" fill="white"/>
<path fill-rule="evenodd" clip-rule="evenodd" d="M19.1773 1.53271C18.8309 1.36922 18.4496 1.2932 18.0669 1.3113C17.7635 1.32662 17.466 1.40085 17.191 1.52983L5.22691 7.17712C4.60374 7.46823 4.14768 8.02786 3.9885 8.69676L1.03704 21.3758C0.899128 21.9664 1.01157 22.5876 1.34772 23.0925C1.38758 23.1542 1.4308 23.2137 1.47717 23.2707L9.75334 33.4367C10.1919 33.9726 10.8485 34.2826 11.5412 34.2806H24.8213C25.5139 34.2821 26.1707 33.9729 26.6106 33.4381L34.8882 23.2707C35.3219 22.742 35.4856 22.042 35.3312 21.3758L32.3798 8.69389C32.2217 8.02489 31.7659 7.46501 31.1428 7.17424L19.1773 1.53271ZM24.7833 31.8795L32.9702 21.8236L30.0598 9.31822L18.1811 3.71761L6.30829 9.32182L3.39747 21.8263L11.5818 31.8795H24.7833Z" fill="#11B5A4"/>
<path fill-rule="evenodd" clip-rule="evenodd" d="M17.3646 7.76149C17.5441 7.55897 17.7977 7.43759 18.0679 7.42487C18.33 7.43353 18.5778 7.54611 18.7569 7.7378C18.936 7.92949 19.0316 8.18458 19.0226 8.44686V8.6372C19.0145 8.78619 18.9953 8.93436 18.9652 9.08049C18.9524 9.14053 18.9422 9.20313 18.932 9.26828C18.8749 9.62125 18.8514 9.97885 18.8618 10.3363L18.8621 10.3371C18.8645 10.3432 18.8672 10.3504 18.9307 10.4078L19.0303 10.4985L19.0711 10.6684C20.9629 10.8935 22.7277 11.7368 24.0922 13.0675L24.2045 12.9883H24.3143C24.3849 12.999 24.4567 12.999 24.5274 12.9883C24.8072 12.7777 25.0674 12.5421 25.3047 12.2844L25.4323 12.1375C25.5295 12.0235 25.6349 11.9168 25.7476 11.8181L25.8612 11.7287C26.0608 11.5484 26.3239 11.4551 26.5925 11.4695C26.861 11.4839 27.1127 11.6048 27.2919 11.8054C27.4442 11.9956 27.5133 12.2393 27.4834 12.4812C27.4488 12.7586 27.3056 13.0108 27.0852 13.1825L26.9345 13.3026C26.8129 13.3887 26.6849 13.4656 26.5517 13.5325C26.4955 13.5619 26.4393 13.5913 26.3819 13.6245C26.0652 13.8004 25.7661 14.0062 25.4885 14.239L25.4876 14.24C25.4814 14.2473 25.4744 14.2555 25.4744 14.3374L25.4655 14.4651L25.3455 14.6159C26.3534 16.2127 26.7953 18.1026 26.6002 19.9813L26.7023 20.0107L26.7673 20.1014C26.8012 20.1614 26.8442 20.2157 26.895 20.2624C27.2357 20.348 27.5834 20.4027 27.9339 20.4259C28.0118 20.4374 28.0756 20.4374 28.1394 20.4374C28.2892 20.4396 28.4386 20.4537 28.5861 20.4795C28.618 20.4859 28.6665 20.4974 28.7137 20.5089L28.7189 20.5102C29.0795 20.5432 29.3902 20.7781 29.5205 21.1163C29.6509 21.4545 29.5782 21.8374 29.3331 22.1042C29.088 22.3711 28.7129 22.4756 28.3653 22.374L28.1649 22.3306C28.0197 22.2893 27.8777 22.2377 27.7399 22.176L27.5625 22.1032C27.226 21.9692 26.8778 21.8669 26.5223 21.7979C26.5257 21.7998 26.5239 21.8005 26.5164 21.8033C26.5041 21.8078 26.4763 21.8181 26.4304 21.849L26.3194 21.9256H26.1547C25.5153 23.7152 24.2941 25.238 22.6869 26.2499L22.7814 26.3572L22.6806 26.4927C22.6285 26.6223 22.6295 26.6255 22.6383 26.6532C22.7844 26.9746 22.9602 27.282 23.163 27.5709L23.2728 27.7216C23.3643 27.8399 23.4467 27.965 23.5191 28.0959L23.5791 28.216C23.7729 28.522 23.7777 28.9112 23.5915 29.2219C23.4052 29.5326 23.0599 29.7116 22.6989 29.6844C22.3379 29.6573 22.0232 29.4287 21.8854 29.0936L21.8012 28.9212C21.7421 28.7825 21.6939 28.6394 21.6569 28.4932L21.6046 28.3144C21.5011 27.9718 21.3652 27.6398 21.1987 27.323C21.1911 27.3141 21.186 27.3103 21.1017 27.2847L20.9741 27.2489L20.8605 27.1148C19.0529 27.7262 17.0939 27.7212 15.2893 27.1007L15.2115 27.24L15.0839 27.2758C15.0402 27.2849 14.9974 27.2982 14.9562 27.3154C14.8288 27.5125 14.7319 27.7279 14.6691 27.9541L14.6634 27.9708C14.6218 28.0947 14.5787 28.2228 14.5287 28.345C14.5197 28.3679 14.5102 28.4033 14.4998 28.4418C14.494 28.4636 14.4879 28.4864 14.4814 28.5085C14.4456 28.6521 14.3987 28.7926 14.341 28.9288L14.2287 29.1537C14.0508 29.4824 13.7088 29.6888 13.3353 29.6928C13.2028 29.6928 13.072 29.6629 12.9524 29.6059C12.4737 29.3578 12.285 28.7694 12.5299 28.2888L12.618 28.1074C12.6927 27.973 12.7781 27.8449 12.8733 27.7242L12.9843 27.5709C13.1921 27.2712 13.3719 26.953 13.5216 26.6204C13.5158 26.6285 13.5129 26.6193 13.5037 26.5904C13.4969 26.569 13.4867 26.5367 13.4693 26.4927L13.4208 26.3713L13.4808 26.2308C11.8769 25.2266 10.6534 23.7157 10.0041 21.9371L9.88283 21.9589L9.78455 21.9039C9.72667 21.8655 9.66346 21.8358 9.59694 21.8158C9.25354 21.8833 8.91724 21.983 8.59247 22.1134L8.39974 22.1914C8.26311 22.253 8.12186 22.3039 7.97728 22.3434C7.94666 22.3521 7.90479 22.3609 7.86292 22.3697C7.85592 22.3711 7.84893 22.3726 7.84199 22.374L7.74371 22.3945C7.40489 22.4857 7.04348 22.3819 6.80449 22.1248C6.5655 21.8677 6.4881 21.4994 6.60336 21.1677C6.71861 20.836 7.00763 20.5953 7.35443 20.5421L7.55226 20.4961C7.70117 20.4706 7.85176 20.4561 8.0028 20.4527L8.19681 20.4438C8.55794 20.4199 8.91603 20.3622 9.26637 20.2713C9.29173 20.2258 9.32167 20.183 9.35571 20.1435L9.41953 20.0605L9.54716 19.9979C9.33889 18.117 9.77301 16.2209 10.7788 14.6184L10.6959 14.5469L10.678 14.4344C10.6719 14.3665 10.656 14.2998 10.6308 14.2364C10.3568 14.0101 10.0629 13.8091 9.75265 13.636C9.70032 13.6054 9.64288 13.5747 9.58673 13.5453C9.4532 13.479 9.32516 13.4021 9.20383 13.3154L9.10172 13.2362C8.85755 13.0608 8.69569 12.7931 8.65373 12.4952C8.62413 12.2533 8.69314 12.0097 8.84518 11.8194C9.04014 11.6017 9.3189 11.478 9.61098 11.4796C9.84001 11.4896 10.0601 11.5714 10.2402 11.7134L10.2477 11.7191C10.3081 11.7651 10.3578 11.8028 10.3921 11.8335C10.5067 11.9305 10.6133 12.0364 10.7112 12.1503L10.8388 12.2908C11.0825 12.5551 11.3504 12.7959 11.6391 13.01C11.6503 13.0138 11.6578 13.0163 11.7463 13.0037L11.8739 12.9832L12.0283 13.056L12.2448 12.8497C13.344 11.8383 14.6906 11.132 16.1509 10.8038C16.453 10.7362 16.7584 10.6846 17.066 10.6492L17.0724 10.5304L17.1643 10.4449C17.2162 10.4018 17.2558 10.3459 17.2791 10.2826C17.2838 9.9404 17.2586 9.59844 17.2038 9.26062C17.1949 9.1993 17.1834 9.13287 17.1719 9.07155C17.1412 8.92552 17.122 8.7773 17.1145 8.62826V8.50051C17.0949 8.23049 17.1851 7.96401 17.3646 7.76149ZM18.1713 22.4213C18.1354 22.4059 18.0968 22.3977 18.0577 22.397C17.9714 22.4002 17.8933 22.4488 17.8522 22.5248L16.4291 25.0632C17.4239 25.33 18.4685 25.351 19.4731 25.1245C19.5548 25.1066 19.6352 25.0874 19.7156 25.0657L18.2785 22.521C18.2548 22.4768 18.2171 22.4417 18.1713 22.4213ZM21.1017 21.0863L20.8465 21.0518C20.7703 21.056 20.7007 21.0965 20.6595 21.1608C20.6182 21.2251 20.6104 21.3053 20.6384 21.3763L20.7086 21.5539L20.7022 21.5616L21.7642 24.0974C22.6685 23.4466 23.381 22.564 23.8267 21.5424L21.1017 21.0863ZM15.2689 21.0633L15.2466 21.0603L15.2243 21.0633L15.0379 21.0991L15.0303 21.0876L12.3232 21.5424C12.7659 22.5587 13.4751 23.4362 14.3755 24.082L15.4234 21.5782L15.4208 21.5769L15.4872 21.3891C15.5072 21.3442 15.5117 21.2938 15.4999 21.246C15.4745 21.1389 15.3789 21.0633 15.2689 21.0633ZM18.8771 18.9095L18.4355 18.364H17.7169L17.274 18.9082L17.4323 19.5866L18.0705 19.8919L18.7086 19.5866L18.8771 18.9095ZM14.5899 17.9859L12.5299 16.1642C12.0062 17.1411 11.7558 18.2414 11.805 19.3489L14.6371 18.5301C14.6875 18.5176 14.7324 18.4889 14.7648 18.4483C14.8427 18.3511 14.8291 18.2095 14.7341 18.1289L14.5899 18.0025V17.9859ZM24.3321 19.3349C24.3689 18.2305 24.1116 17.1363 23.5867 16.1642L21.5293 17.9833L21.5319 17.9808L21.394 18.1085C21.3558 18.1417 21.3298 18.1866 21.32 18.2363C21.2912 18.3596 21.3668 18.4832 21.4897 18.5135L21.6876 18.5837L24.3321 19.3349ZM16.7495 15.9151L16.9294 12.996C16.8414 13.0113 16.752 13.0292 16.6627 13.0496C15.6614 13.2722 14.7298 13.7367 13.9492 14.4025L16.2121 15.9892L16.3666 16.0926C16.4391 16.136 16.5283 16.1407 16.6049 16.1052C16.6816 16.0697 16.7357 15.9985 16.7495 15.9151ZM22.1662 14.414C21.3196 13.6957 20.3002 13.2113 19.2089 13.0088L19.3634 15.703L19.3736 15.9112C19.3776 15.9581 19.3959 16.0027 19.4259 16.039C19.5105 16.1348 19.6528 16.1534 19.759 16.0824L19.902 15.9802H19.9135L22.1662 14.414Z" fill="#11B5A4"/>
</g>
<defs>
<clipPath id="clip0">
<rect x="0.734863" y="0.551025" width="34.898" height="34.898" fill="white"/>
</clipPath>
</defs>
</svg>
