<svg width="35" height="35" viewBox="0 0 35 35" fill="none" xmlns="http://www.w3.org/2000/svg">
<path d="M29.9631 8.18503C29.946 8.15427 29.9221 8.12351 29.8948 8.09958C29.7239 7.92868 29.447 7.92868 29.2761 8.09958L23.3869 13.9887L21.0661 11.6679L26.9587 5.77536C26.9861 5.74802 27.0066 5.72067 27.0271 5.68991C27.1501 5.48142 27.0818 5.21482 26.8733 5.09177C23.5168 3.10935 19.1213 3.56394 16.2331 6.4487C13.9431 8.73874 13.1843 11.9858 13.9602 14.9048L3.94554 24.9194C3.843 25.0219 3.84983 25.1894 3.95579 25.2954L9.75608 31.0957C9.86204 31.2016 10.0329 31.2085 10.1321 31.1059L20.1433 21.0947C23.0657 21.874 26.3127 21.1186 28.6062 18.8252C31.4909 15.937 31.9455 11.5415 29.9631 8.18503V8.18503ZM26.8664 17.082C24.8806 19.0678 21.9001 19.4507 19.5315 18.2304L19.2307 18.5312L19.2273 18.5278L9.86204 27.8965L7.15501 25.1894L15.0198 17.3247C15.0198 17.3247 15.0198 17.3281 15.0232 17.3281L16.8279 15.5234C15.6076 13.1548 15.9905 10.1743 17.9763 8.18845C18.6168 7.5474 19.3881 7.05216 20.2375 6.73657C21.087 6.42098 21.9945 6.29248 22.8982 6.35983L18.3557 10.8989C18.1505 11.1043 18.0353 11.3827 18.0353 11.6731C18.0353 11.9634 18.1505 12.2418 18.3557 12.4472L22.6111 16.7026C22.8165 16.9078 23.0949 17.023 23.3852 17.023C23.6756 17.023 23.954 16.9078 24.1594 16.7026L28.6985 12.1635C28.8249 13.9341 28.2063 15.7456 26.8664 17.082V17.082Z" fill="#52B2A4"/>
</svg>
