<svg width="36" height="36" viewBox="0 0 36 36" fill="none" xmlns="http://www.w3.org/2000/svg">
<rect x="0.367188" y="0.551025" width="34.898" height="34.898" fill="white"/>
<path fill-rule="evenodd" clip-rule="evenodd" d="M26.4925 4.81631C26.1107 4.81631 25.7896 5.076 25.6961 5.42838H22.3726C20.9591 5.42838 18.8715 5.86704 17.1109 7.20509C15.301 8.58059 13.9209 10.8463 13.9209 14.292V20.8839C13.9209 20.9383 13.8902 21.0927 13.7748 21.2209C13.6893 21.3159 13.4701 21.496 12.8968 21.496H10.8369V21.2959C10.8369 20.8408 10.468 20.4719 10.013 20.4719H6.71705C6.26197 20.4719 5.89307 20.8408 5.89307 21.2959V30.3597C5.89307 30.8148 6.26198 31.1837 6.71705 31.1837H10.013C10.3948 31.1837 10.716 30.9239 10.8095 30.5715H14.9567C16.619 30.5715 18.7296 29.9843 20.4376 28.453C22.1752 26.8952 23.4084 24.4389 23.4084 20.8839V15.116L23.4085 15.114L23.4088 15.1082C23.4092 15.1032 23.4098 15.0965 23.4109 15.0885C23.4132 15.0722 23.417 15.0533 23.4226 15.0337C23.4345 14.9922 23.4495 14.9639 23.4604 14.9488C23.4686 14.9374 23.4732 14.9358 23.4732 14.9358C23.4732 14.9358 23.5092 14.9159 23.6085 14.9159H25.6961C25.7895 15.2683 26.1107 15.5281 26.4925 15.5281H29.7885C30.2435 15.5281 30.6124 15.1591 30.6124 14.7041V5.64029C30.6124 5.18522 30.2435 4.81631 29.7885 4.81631H26.4925ZM10.8369 28.4998H14.9567C16.1784 28.4998 17.7757 28.0571 19.0546 26.9105C20.304 25.7903 21.3367 23.9207 21.3367 20.8839V15.116C21.3367 14.7443 21.4397 14.2097 21.7791 13.7383C22.1566 13.2141 22.7765 12.8442 23.6085 12.8442H25.6686V7.5001H22.3726C21.3141 7.5001 19.6938 7.84422 18.3645 8.85451C17.0844 9.82735 15.9926 11.4755 15.9926 14.292V20.8839C15.9926 21.3788 15.8173 22.0484 15.3147 22.6068C14.7822 23.1984 13.9714 23.5677 12.8968 23.5677H10.8369V28.4998Z" fill="#11B5A4"/>
</svg>
