<svg width="35" height="36" viewBox="0 0 35 36" fill="none" xmlns="http://www.w3.org/2000/svg">
<rect x="0.102051" y="0.551025" width="34.898" height="34.898" fill="white"/>
<path d="M24.8328 18.4049C24.649 18.5427 24.3734 18.7265 24.2355 18.7265C23.1329 18.7265 24.2815 13.9483 24.5112 12.9834C23.1788 13.2591 18.3546 14.2239 17.16 13.305C17.206 12.478 18.7221 11.7429 18.7221 9.76727C18.7221 7.69974 16.7465 6.36734 14.679 6.36734C12.6115 6.36734 9.90072 7.56191 9.90072 9.85916C9.90072 11.697 11.1872 12.7996 11.325 13.2591C11.325 14.5915 6.04134 13.351 4.75488 13.0294V29.156C5.21433 29.2939 7.3278 29.8911 9.53316 29.8911C11.6007 29.8911 13.5763 29.202 13.5763 27.1345C13.5763 25.6642 12.1061 25.021 12.1061 23.7345C12.1061 22.9535 13.4385 22.494 14.3574 22.494C15.3222 22.494 16.5168 22.9994 16.5168 23.6426C16.5168 24.7453 15.0465 25.3426 15.0465 27.2263C15.0465 30.3047 18.7681 29.8911 21.2032 29.5695C22.9031 29.3858 22.7194 29.4317 24.5572 29.4317C24.4193 29.0182 23.2707 25.6642 23.9139 24.7913C24.3734 24.194 25.7058 26.2156 27.7733 26.2156C29.9327 26.2156 31.2192 23.8724 31.2192 21.8048C31.2192 19.186 29.1057 15.6942 24.8328 18.4049ZM27.7733 24.0102C26.6706 24.0102 26.0733 22.54 24.1436 22.54C22.5356 22.54 21.0653 23.7805 21.7086 27.3182C20.8356 27.4101 17.8032 27.9155 17.2519 27.4101C16.7465 26.9507 18.7221 25.6642 18.7221 23.6426C18.7221 21.5292 16.4249 20.2887 14.3574 20.2887C12.198 20.2887 9.90072 21.5292 9.90072 23.7345C9.90072 26.0777 11.7845 26.9507 11.2331 27.3642C10.4521 27.9615 7.92508 27.5939 6.96024 27.4101V15.7861C9.85477 16.2914 13.5763 16.1996 13.5763 13.2591C13.5763 11.7888 12.1061 11.1456 12.1061 9.85916C12.1061 9.07809 13.8979 8.5727 14.679 8.5727C15.4601 8.5727 16.5168 8.94026 16.5168 9.76727C16.5168 10.8699 14.9547 11.4672 14.9547 13.351C14.9547 16.1077 18.9519 16.0617 21.7086 15.7401C21.387 18.1752 21.7545 20.9319 24.2355 20.9319C25.7058 20.9319 26.349 19.5995 27.7274 19.5995C28.5084 19.5995 29.0138 20.8859 29.0138 21.8048C29.0138 22.8156 28.4165 24.0102 27.7733 24.0102Z" fill="#11B5A4"/>
</svg>
