<svg width="35" height="35" viewBox="0 0 35 35" fill="none" xmlns="http://www.w3.org/2000/svg">
<path d="M4.375 3.28125C4.08493 3.28128 3.80675 3.39652 3.60163 3.60163C3.39652 3.80675 3.28128 4.08493 3.28125 4.375V13.125C3.28128 13.4151 3.39652 13.6933 3.60163 13.8984C3.80675 14.1035 4.08493 14.2187 4.375 14.2188H7.65625V16.4062H9.84375V14.2188H13.125C13.4151 14.2187 13.6933 14.1035 13.8984 13.8984C14.1035 13.6933 14.2187 13.4151 14.2188 13.125V9.84375H16.4062V7.65625H14.2188V4.375C14.2187 4.08493 14.1035 3.80675 13.8984 3.60163C13.6933 3.39652 13.4151 3.28128 13.125 3.28125H4.375ZM21.875 3.28125C21.5849 3.28128 21.3067 3.39652 21.1016 3.60163C20.8965 3.80675 20.7813 4.08493 20.7812 4.375V7.65625H18.5938V9.84375H20.7812V13.125C20.7813 13.4151 20.8965 13.6933 21.1016 13.8984C21.3067 14.1035 21.5849 14.2187 21.875 14.2188H25.1562V16.4062H27.3438V14.2188H30.625C30.9151 14.2187 31.1933 14.1035 31.3984 13.8984C31.6035 13.6933 31.7187 13.4151 31.7188 13.125V4.375C31.7187 4.08493 31.6035 3.80675 31.3984 3.60163C31.1933 3.39652 30.9151 3.28128 30.625 3.28125H21.875ZM5.46875 5.46875H12.0312V12.0312H5.46875V5.46875ZM22.9688 5.46875H29.5312V12.0312H22.9688V5.46875ZM7.65625 18.5938V20.7812H4.375C4.08493 20.7813 3.80675 20.8965 3.60163 21.1016C3.39652 21.3067 3.28128 21.5849 3.28125 21.875V30.625C3.28128 30.9151 3.39652 31.1933 3.60163 31.3984C3.80675 31.6035 4.08493 31.7187 4.375 31.7188H13.125C13.4151 31.7187 13.6933 31.6035 13.8984 31.3984C14.1035 31.1933 14.2187 30.9151 14.2188 30.625V27.3438H16.4062V25.1562H14.2188V21.875C14.2187 21.5849 14.1035 21.3067 13.8984 21.1016C13.6933 20.8965 13.4151 20.7813 13.125 20.7812H9.84375V18.5938H7.65625ZM25.1562 18.5938V20.7812H21.875C21.5849 20.7813 21.3067 20.8965 21.1016 21.1016C20.8965 21.3067 20.7813 21.5849 20.7812 21.875V25.1562H18.5938V27.3438H20.7812V30.625C20.7813 30.9151 20.8965 31.1933 21.1016 31.3984C21.3067 31.6035 21.5849 31.7187 21.875 31.7188H30.625C30.9151 31.7187 31.1933 31.6035 31.3984 31.3984C31.6035 31.1933 31.7187 30.9151 31.7188 30.625V21.875C31.7187 21.5849 31.6035 21.3067 31.3984 21.1016C31.1933 20.8965 30.9151 20.7813 30.625 20.7812H27.3438V18.5938H25.1562ZM5.46875 22.9688H12.0312V29.5312H5.46875V22.9688ZM22.9688 22.9688H29.5312V29.5312H22.9688V22.9688Z" fill="#52B2A4"/>
</svg>
