<svg width="24" height="24" viewBox="0 0 24 24" fill="none" xmlns="http://www.w3.org/2000/svg">
<path d="M3 2.25C2.80109 2.25002 2.61034 2.32904 2.46969 2.46969C2.32904 2.61034 2.25002 2.80109 2.25 3V9C2.25002 9.19891 2.32904 9.38966 2.46969 9.53031C2.61034 9.67096 2.80109 9.74998 3 9.75H5.25V11.25H6.75V9.75H9C9.19891 9.74998 9.38966 9.67096 9.53031 9.53031C9.67096 9.38966 9.74998 9.19891 9.75 9V6.75H11.25V5.25H9.75V3C9.74998 2.80109 9.67096 2.61034 9.53031 2.46969C9.38966 2.32904 9.19891 2.25002 9 2.25H3ZM15 2.25C14.8011 2.25002 14.6103 2.32904 14.4697 2.46969C14.329 2.61034 14.25 2.80109 14.25 3V5.25H12.75V6.75H14.25V9C14.25 9.19891 14.329 9.38966 14.4697 9.53031C14.6103 9.67096 14.8011 9.74998 15 9.75H17.25V11.25H18.75V9.75H21C21.1989 9.74998 21.3897 9.67096 21.5303 9.53031C21.671 9.38966 21.75 9.19891 21.75 9V3C21.75 2.80109 21.671 2.61034 21.5303 2.46969C21.3897 2.32904 21.1989 2.25002 21 2.25H15ZM3.75 3.75H8.25V8.25H3.75V3.75ZM15.75 3.75H20.25V8.25H15.75V3.75ZM5.25 12.75V14.25H3C2.80109 14.25 2.61034 14.329 2.46969 14.4697C2.32904 14.6103 2.25002 14.8011 2.25 15V21C2.25002 21.1989 2.32904 21.3897 2.46969 21.5303C2.61034 21.671 2.80109 21.75 3 21.75H9C9.19891 21.75 9.38966 21.671 9.53031 21.5303C9.67096 21.3897 9.74998 21.1989 9.75 21V18.75H11.25V17.25H9.75V15C9.74998 14.8011 9.67096 14.6103 9.53031 14.4697C9.38966 14.329 9.19891 14.25 9 14.25H6.75V12.75H5.25ZM17.25 12.75V14.25H15C14.8011 14.25 14.6103 14.329 14.4697 14.4697C14.329 14.6103 14.25 14.8011 14.25 15V17.25H12.75V18.75H14.25V21C14.25 21.1989 14.329 21.3897 14.4697 21.5303C14.6103 21.671 14.8011 21.75 15 21.75H21C21.1989 21.75 21.3897 21.671 21.5303 21.5303C21.671 21.3897 21.75 21.1989 21.75 21V15C21.75 14.8011 21.671 14.6103 21.5303 14.4697C21.3897 14.329 21.1989 14.25 21 14.25H18.75V12.75H17.25ZM3.75 15.75H8.25V20.25H3.75V15.75ZM15.75 15.75H20.25V20.25H15.75V15.75Z" fill="#03C77C"/>
</svg>
