<svg width="24" height="24" viewBox="0 0 24 24" fill="none" xmlns="http://www.w3.org/2000/svg">
<path fill-rule="evenodd" clip-rule="evenodd" d="M4.84923 5.47171C4.59106 5.62091 4.29818 5.69957 3.99999 5.6998C3.54921 5.69974 3.11691 5.52064 2.79815 5.20189C2.47934 4.88307 2.30023 4.45067 2.30023 3.9998C2.30023 3.54894 2.47934 3.11653 2.79815 2.79772C3.1169 2.47897 3.54919 2.29987 3.99997 2.2998C4.29778 2.30038 4.59021 2.37918 4.848 2.52831C5.10586 2.67749 5.31999 2.89181 5.46894 3.1498L5.55554 3.2998H21.7002V12.6998H15.7002V15.4646C15.7002 15.725 15.557 15.9623 15.3261 16.0835C15.2221 16.1376 15.1099 16.1646 15.0002 16.1646C14.8621 16.1646 14.723 16.1219 14.6027 16.0383L9.60268 12.5754C9.41318 12.4442 9.30023 12.2289 9.30023 11.9998C9.30023 11.7707 9.41318 11.5554 9.60268 11.4242L14.6027 7.96128L14.6036 7.96061C14.8159 7.8124 15.0955 7.7955 15.3264 7.91623C15.5565 8.03617 15.7002 8.27396 15.7002 8.53496V11.2998H20.3002V4.6998H5.5575L5.47089 4.8498C5.3218 5.10804 5.10741 5.32252 4.84923 5.47171ZM14.3002 14.1273V9.87232L11.2293 11.9998L14.3002 14.1273ZM3.70023 11.2998V12.6998H2.30023V11.2998H3.70023ZM7.70023 11.2998V12.6998H6.30023V11.2998H7.70023ZM3.70023 15.2998V16.6998H2.30023V15.2998H3.70023ZM18.7982 18.7977C19.117 18.4789 19.5494 18.2998 20.0002 18.2998C20.4511 18.2998 20.8835 18.4789 21.2023 18.7977C21.5211 19.1165 21.7002 19.5489 21.7002 19.9998C21.7002 20.4507 21.5211 20.8831 21.2023 21.2019C20.8835 21.5207 20.4511 21.6998 20.0002 21.6998C19.5494 21.6998 19.117 21.5207 18.7982 21.2019C18.4793 20.8831 18.3002 20.4507 18.3002 19.9998C18.3002 19.5489 18.4793 19.1165 18.7982 18.7977ZM3.70023 19.2998V20.6998H2.30023V19.2998H3.70023ZM7.70023 19.2998V20.6998H6.30023V19.2998H7.70023ZM11.7002 19.2998V20.6998H10.3002V19.2998H11.7002ZM15.7002 19.2998V20.6998H14.3002V19.2998H15.7002Z" fill="#03C77C"/>
</svg>
