<svg width="35" height="35" viewBox="0 0 35 35" fill="none" xmlns="http://www.w3.org/2000/svg">
<path fill-rule="evenodd" clip-rule="evenodd" d="M7.07178 7.9797C6.69528 8.19728 6.26816 8.31199 5.83331 8.31234C5.17592 8.31225 4.54548 8.05106 4.08062 7.58621C3.61569 7.12127 3.35449 6.49069 3.35449 5.83317C3.35449 5.17565 3.61569 4.54507 4.08062 4.08013C4.54547 3.61529 5.1759 3.35411 5.83327 3.354C6.26758 3.35484 6.69405 3.46975 7.06998 3.68724C7.44603 3.9048 7.7583 4.21735 7.97552 4.59359L8.10182 4.81234H31.6462V18.5207H22.8962V22.5527C22.8962 22.9325 22.6873 23.2785 22.3506 23.4553C22.1989 23.5341 22.0352 23.5736 21.8753 23.5736C21.6738 23.5736 21.471 23.5112 21.2956 23.3894L14.0039 18.3393C13.7275 18.1479 13.5628 17.8339 13.5628 17.4998C13.5628 17.1658 13.7275 16.8518 14.0039 16.6604L21.2956 11.6103L21.297 11.6093C21.6064 11.3932 22.0143 11.3686 22.351 11.5446C22.6866 11.7195 22.8962 12.0663 22.8962 12.4469V16.479H29.6045V6.854H8.10467L7.97837 7.07275C7.76095 7.44935 7.44829 7.76213 7.07178 7.9797ZM20.8545 20.6024V14.3973L16.376 17.4998L20.8545 20.6024ZM5.39616 16.479V18.5207H3.35449V16.479H5.39616ZM11.2295 16.479V18.5207H9.18783V16.479H11.2295ZM5.39616 22.3123V24.354H3.35449V22.3123H5.39616ZM27.414 27.4135C27.8789 26.9485 28.5095 26.6873 29.167 26.6873C29.8245 26.6873 30.4551 26.9485 30.92 27.4135C31.385 27.8784 31.6462 28.509 31.6462 29.1665C31.6462 29.824 31.385 30.4546 30.92 30.9195C30.4551 31.3845 29.8245 31.6457 29.167 31.6457C28.5095 31.6457 27.8789 31.3845 27.414 30.9195C26.949 30.4546 26.6878 29.824 26.6878 29.1665C26.6878 28.509 26.949 27.8784 27.414 27.4135ZM5.39616 28.1457V30.1873H3.35449V28.1457H5.39616ZM11.2295 28.1457V30.1873H9.18783V28.1457H11.2295ZM17.0628 28.1457V30.1873H15.0212V28.1457H17.0628ZM22.8962 28.1457V30.1873H20.8545V28.1457H22.8962Z" fill="#52B2A4"/>
</svg>
