<svg width="24" height="25" viewBox="0 0 24 25" fill="none" xmlns="http://www.w3.org/2000/svg">
<path d="M18.3489 9.88528C17.3777 7.32368 14.903 5.50214 12.0042 5.50214C9.10547 5.50214 6.6308 7.32156 5.6596 9.88316C3.8423 10.3603 2.5 12.0164 2.5 13.9843C2.5 16.3275 4.39788 18.2254 6.73895 18.2254H7.58929C7.68259 18.2254 7.75893 18.149 7.75893 18.0557V16.7834C7.75893 16.6901 7.68259 16.6137 7.58929 16.6137H6.73895C6.02433 16.6137 5.35212 16.3296 4.85167 15.8143C4.35335 15.3011 4.08828 14.6098 4.11161 13.8931C4.13069 13.3333 4.32154 12.8074 4.66719 12.3642C5.02132 11.9125 5.51752 11.5838 6.06886 11.4375L6.87254 11.2276L7.1673 10.4515C7.34967 9.96798 7.60413 9.51631 7.92433 9.10705C8.24044 8.7014 8.61489 8.34482 9.03549 8.0489C9.90703 7.43606 10.9334 7.11162 12.0042 7.11162C13.0751 7.11162 14.1015 7.43606 14.973 8.0489C15.395 8.34577 15.7682 8.70202 16.0842 9.10705C16.4044 9.51631 16.6588 9.9701 16.8412 10.4515L17.1338 11.2255L17.9354 11.4375C19.0847 11.7471 19.8884 12.7925 19.8884 13.9843C19.8884 14.6862 19.6148 15.3478 19.1186 15.844C18.8753 16.0888 18.5858 16.2828 18.267 16.415C17.9481 16.5471 17.6062 16.6146 17.261 16.6137H16.4107C16.3174 16.6137 16.2411 16.6901 16.2411 16.7834V18.0557C16.2411 18.149 16.3174 18.2254 16.4107 18.2254H17.261C19.6021 18.2254 21.5 16.3275 21.5 13.9843C21.5 12.0185 20.1619 10.3645 18.3489 9.88528Z" fill="#46D49E"/>
<path d="M12.5 13.6472C12.5 13.6472 14.0009 15.1705 13.5632 17.6954C15.0641 17.0902 15.6478 16.0886 15.8146 15.087C15.8146 15.087 16.3149 13.1881 17.1071 12.3952C15.5436 12.6456 15.3977 12.0405 12.5 13.6472Z" fill="#46D49E"/>
<path d="M12.8128 18.28C12.8544 18.0922 13.4381 16.1098 12.2916 14.5031C10.3737 12.3746 7.47607 12.0616 7.47607 12.0616C8.03893 13.1467 8.05977 14.1692 8.66432 16.2559C9.41479 18.4052 12.1665 18.5512 12.375 18.5721C12.5626 18.8642 12.9795 19.2607 13.9593 19.4694L14.0635 18.9477C13.2088 18.7808 12.917 18.4469 12.8128 18.28ZM10.1027 15.609C9.87341 14.8787 9.26887 13.6684 8.5184 13.0424C8.5184 13.0424 10.6864 13.6267 11.9581 17.6957C10.7907 17.3201 10.2695 16.1515 10.1027 15.609Z" fill="#46D49E"/>
</svg>
