<svg width="24" height="25" viewBox="0 0 24 25" fill="none" xmlns="http://www.w3.org/2000/svg">
<path d="M20.625 3.11078C20.5359 3.11078 20.4445 3.12719 20.3531 3.16469L6.84375 8.59281H3C2.79375 8.59281 2.625 8.76625 2.625 8.98187V15.9897C2.625 16.2053 2.79375 16.3787 3 16.3787H5.38359C5.29687 16.6506 5.25 16.9389 5.25 17.2319C5.25 18.7764 6.51094 20.0327 8.0625 20.0327C9.36094 20.0327 10.4555 19.1514 10.7789 17.9608L20.3555 21.8092C20.4469 21.8444 20.5383 21.8631 20.6273 21.8631C21.0234 21.8631 21.3773 21.5303 21.3773 21.085V3.8889C21.375 3.44359 21.0234 3.11078 20.625 3.11078ZM8.0625 18.3522C7.44141 18.3522 6.9375 17.8506 6.9375 17.2319C6.9375 16.9694 7.02891 16.7186 7.19531 16.5194L9.18516 17.3186C9.13828 17.8952 8.65312 18.3522 8.0625 18.3522ZM19.6875 19.7209L7.47187 14.8131L7.16953 14.6912H4.3125V10.2803H7.16953L7.47187 10.1584L19.6875 5.25062V19.7209Z" fill="#46D49E"/>
</svg>
