<svg width="35" height="36" viewBox="0 0 35 36" fill="none" xmlns="http://www.w3.org/2000/svg">
<rect y="0.551025" width="34.898" height="34.898" fill="white"/>
<path d="M17.6684 17.7097L6.12882 20.9837C5.32374 21.1984 5.27006 22.3255 6.02148 22.7013L9.6712 24.4724L4.89436 29.2493C4.57232 29.5713 4.57232 30.108 4.89436 30.4301L6.07515 31.6109C6.39718 31.9329 6.93391 31.9329 7.25594 31.6109L12.0328 26.834L13.804 30.4837C14.1797 31.2352 15.3068 31.1815 15.5215 30.3764L18.7955 18.8368C19.0102 18.1391 18.3661 17.5487 17.6684 17.7097ZM19.1175 23.9894L18.3661 26.673C22.6599 26.4583 26.1486 22.9159 26.1486 18.5148C26.1486 14.0063 22.4989 10.3566 17.9904 10.3566C13.5893 10.3566 10.0469 13.8453 9.83221 18.1391L12.5158 17.3877C13.0526 14.8651 15.3068 12.9329 17.9904 12.9329C21.0497 12.9329 23.5723 15.4555 23.5723 18.5148C23.5723 21.1984 21.6401 23.4527 19.1175 23.9894ZM17.9904 5.20407C10.6373 5.20407 4.67967 11.2154 4.67967 18.5148C4.67967 18.9442 4.67967 19.3199 4.73334 19.6956C4.89436 19.5883 5.10905 19.4809 5.32374 19.4272L7.25594 18.8905C7.25594 18.7832 7.25594 18.6758 7.25594 18.5148C7.25594 12.6109 12.0328 7.78034 17.9904 7.78034C23.8944 7.78034 28.7249 12.6109 28.7249 18.5148C28.7249 24.4724 23.8944 29.2493 17.9904 29.2493C17.8294 29.2493 17.722 29.2493 17.6147 29.2493L17.078 31.1815C17.0243 31.3962 16.917 31.6109 16.8096 31.7719C17.1853 31.8256 17.561 31.8256 17.9904 31.8256C25.2898 31.8256 31.3011 25.8679 31.3011 18.5148C31.3011 11.2154 25.2898 5.20407 17.9904 5.20407Z" fill="#11B5A4"/>
</svg>
