<svg width="24" height="25" viewBox="0 0 24 25" fill="none" xmlns="http://www.w3.org/2000/svg">
<path d="M20.5461 6.09834C20.5344 6.07725 20.518 6.05616 20.4992 6.03975C20.382 5.92256 20.1922 5.92256 20.075 6.03975L16.0367 10.078L14.4453 8.48663L18.4859 4.446C18.5047 4.42725 18.5187 4.4085 18.5328 4.38741C18.6172 4.24444 18.5703 4.06163 18.4273 3.97725C16.1258 2.61788 13.1117 2.92959 11.1312 4.90772C9.56093 6.47803 9.04062 8.70459 9.57265 10.7062L2.70546 17.5733C2.63515 17.6437 2.63984 17.7585 2.71249 17.8312L6.68984 21.8085C6.76249 21.8812 6.87968 21.8858 6.94765 21.8155L13.8125 14.9507C15.8164 15.4851 18.043 14.9671 19.6156 13.3944C21.5937 11.414 21.9055 8.39991 20.5461 6.09834V6.09834ZM18.4226 12.1991C17.0609 13.5608 15.0172 13.8233 13.393 12.9866L13.1867 13.1929L13.1844 13.1905L6.76249 19.6148L4.90624 17.7585L10.2992 12.3655C10.2992 12.3655 10.2992 12.3679 10.3016 12.3679L11.5391 11.1304C10.7023 9.50616 10.9648 7.46241 12.3266 6.10069C12.7657 5.66111 13.2946 5.32152 13.8771 5.10512C14.4596 4.88871 15.0819 4.80059 15.7016 4.84678L12.5867 7.95928C12.446 8.10013 12.367 8.29106 12.367 8.49014C12.367 8.68922 12.446 8.88015 12.5867 9.021L15.5047 11.939C15.6455 12.0797 15.8365 12.1587 16.0355 12.1587C16.2346 12.1587 16.4256 12.0797 16.5664 11.939L19.6789 8.82647C19.7656 10.0405 19.3414 11.2827 18.4226 12.1991V12.1991Z" fill="#46D49E"/>
</svg>
