<svg width="36" height="34" viewBox="0 0 36 34" fill="none" xmlns="http://www.w3.org/2000/svg">
<g clip-path="url(#clip0)">
<rect x="0.734863" y="0.641571" width="34.898" height="32.7168" fill="white"/>
<path d="M33.7789 11.0846L19.7106 6.77684C18.6746 6.44967 17.6386 6.44967 16.6025 6.77684L2.53429 11.0846C1.44373 11.4663 0.734863 12.3932 0.734863 13.5383C0.734863 14.6289 1.44373 15.5559 2.53429 15.9376L3.73391 16.3193C3.62485 16.5919 3.51579 16.8645 3.46127 17.1917C2.86146 17.4643 2.47976 18.0641 2.47976 18.773C2.47976 19.3183 2.7524 19.809 3.18863 20.1362L1.82542 26.4069C1.71637 26.9522 2.09806 27.443 2.64335 27.443H5.75145C6.29673 27.443 6.67842 26.9522 6.56937 26.4069L5.20616 20.1362C5.64239 19.809 5.96956 19.3183 5.96956 18.773C5.96956 18.1732 5.64239 17.6825 5.20616 17.3553C5.26069 17.1917 5.36975 16.9736 5.4788 16.81L8.47785 17.737L7.71446 23.9532C7.71446 25.9162 12.3493 27.443 18.1838 27.443C23.9638 27.443 28.6532 25.9162 28.6532 23.9532L27.8353 17.737L33.7789 15.9376C34.8694 15.5559 35.6328 14.6289 35.6328 13.5383C35.6328 12.3932 34.8694 11.4663 33.7789 11.0846ZM25.9268 23.4624C22.6551 25.3164 13.6035 25.3164 10.3863 23.4624L10.9861 18.5549L16.6025 20.2453C17.2023 20.4634 18.3474 20.6815 19.7106 20.2453L25.327 18.5549L25.9268 23.4624ZM18.9472 17.737C18.4565 17.9006 17.8567 17.9006 17.3659 17.737L9.13219 15.2287L18.2929 13.4838C18.7837 13.4293 19.1108 12.9385 19.0018 12.5023C18.9472 12.0115 18.4565 11.6844 18.0203 11.7934L6.89653 13.8655C6.51484 13.92 6.18767 14.0836 5.8605 14.1927L3.62485 13.4838L17.3659 9.28513C17.8567 9.12155 18.4565 9.12155 18.9472 9.28513L32.6883 13.5383L18.9472 17.737Z" fill="#11B5A4"/>
</g>
<defs>
<clipPath id="clip0">
<rect x="0.734863" y="0.641571" width="34.898" height="32.7168" fill="white"/>
</clipPath>
</defs>
</svg>
