<svg width="35" height="36" viewBox="0 0 35 36" fill="none" xmlns="http://www.w3.org/2000/svg">
<rect x="0.102051" y="0.551025" width="34.898" height="34.898" fill="white"/>
<path d="M15.5621 22.9833V22.9303L13.8126 21.3929L15.5621 19.9085C15.7741 19.6964 15.7741 19.4314 15.6151 19.2193L14.6609 18.2121C14.5018 18.053 14.1837 18.053 14.0247 18.2121L10.9499 21.0748C10.7909 21.2868 10.7909 21.5519 10.9499 21.764L14.0247 24.6267C14.1307 24.6797 14.2367 24.7327 14.3428 24.7327C14.4488 24.7327 14.6078 24.6797 14.6609 24.6267L15.6151 23.6194C15.7741 23.4074 15.7741 23.1423 15.5621 22.9833ZM27.225 9.6239L22.8249 5.17078C22.3478 4.69366 21.6586 4.42859 21.0225 4.42859H10.2077C8.77637 4.42859 7.66309 5.59488 7.66309 6.97323V29.0268C7.66309 30.4582 8.77637 31.5714 10.2077 31.5714H25.4756C26.8539 31.5714 28.0202 30.4582 28.0202 29.0268V11.4264C28.0202 10.7902 27.7021 10.101 27.225 9.6239ZM21.2345 7.18529L25.2635 11.2143H21.2345V7.18529ZM25.4756 29.0268H10.2077V6.97323H18.6899V12.4866C18.6899 13.2288 19.22 13.7589 19.9622 13.7589H25.4756V29.0268ZM18.7429 15.7735C18.4778 15.7204 18.2658 15.8795 18.1597 16.0915L15.297 26.1111C15.191 26.3231 15.35 26.5882 15.6151 26.6412L16.8874 27.0653C17.1525 27.1183 17.4176 26.9593 17.4706 26.7472L20.3863 16.7277C20.4393 16.5156 20.2803 16.2506 20.0682 16.1445L18.7429 15.7735ZM20.0682 19.8555V19.9085L21.8177 21.3929L20.0682 22.9303C19.8562 23.1423 19.8562 23.4074 20.0152 23.6194L20.9694 24.6267C21.1285 24.7857 21.4466 24.7857 21.6056 24.6267L24.6804 21.764C24.8394 21.5519 24.8394 21.2338 24.6804 21.0748L21.6056 18.2121C21.4466 18.053 21.1285 18.053 20.9694 18.2121L20.0152 19.2193C19.8562 19.3784 19.8562 19.6964 20.0682 19.8555Z" fill="#11B5A4"/>
</svg>
