<svg {% if include.class %} class="{{ include.class }}"{% endif %} {% if include.width %} width="{{ include.width }}"{% endif %}{% if include.height %} height="{{ include.height }}"{% endif %} viewBox="0 0 139 24" fill="none" xmlns="http://www.w3.org/2000/svg">
<g clip-path="url(#clip0_1490_28654)">
  <path d="M16.4053 5.15249C19.5099 8.78537 20.787 13.6296 19.8401 18.3194C24.7061 16.3817 26.5999 13.1232 27.1722 9.86436C27.1722 9.86436 28.8236 3.67715 31.4218 1.12305C26.3356 1.89369 25.8292 -0.110116 16.4053 5.15249Z" fill="#0BA890"/>
  <path d="M8.60919 11.4716C7.59637 8.3229 5.83497 5.46045 3.47892 3.12669C3.47892 3.12669 10.5689 4.99815 14.6643 18.2312C10.8111 17.0642 9.15972 13.2551 8.60919 11.4716ZM17.3946 20.1247C17.5047 19.4862 19.3982 13.0789 15.655 7.88266C9.42395 0.968708 0 0 0 0C1.82753 3.54487 1.89359 6.86962 3.89726 13.6294C6.31932 20.6311 15.3028 21.0937 15.9634 21.1157C16.5578 22.0624 17.9451 23.3394 21.1157 24L21.468 22.3266C18.7376 21.7542 17.7469 20.6973 17.3946 20.1247Z" fill="#0BA890"/>
  <path d="M49.5056 9.73536H46.6819C46.6012 9.27217 46.4528 8.86201 46.2363 8.50465C46.0199 8.14217 45.7506 7.83515 45.4284 7.58362C45.1065 7.33186 44.7389 7.14316 44.3263 7.01728C43.9186 6.8865 43.4781 6.821 43.0051 6.821C42.1645 6.821 41.4195 7.03243 40.7703 7.45529C40.121 7.87303 39.6126 8.48705 39.2452 9.29735C38.8778 10.1027 38.694 11.0866 38.694 12.2494C38.694 13.4322 38.8778 14.4287 39.2452 15.239C39.6177 16.0444 40.1259 16.6536 40.7703 17.0662C41.4195 17.4739 42.162 17.6777 42.9975 17.6777C43.4605 17.6777 43.8934 17.6174 44.296 17.4966C44.7037 17.3707 45.0686 17.1869 45.3908 16.9454C45.7178 16.7037 45.9923 16.4069 46.2138 16.0545C46.4401 15.7022 46.5963 15.2994 46.6819 14.8465L49.5056 14.8616C49.3997 15.5964 49.1707 16.2859 48.8185 16.9303C48.4711 17.5746 48.0155 18.1434 47.4518 18.6366C46.8882 19.1248 46.2287 19.5073 45.4739 19.784C44.7188 20.0558 43.8809 20.1917 42.9596 20.1917C41.6008 20.1917 40.3877 19.8772 39.3208 19.248C38.2536 18.6188 37.4132 17.7105 36.799 16.5225C36.1849 15.3348 35.8779 13.9103 35.8779 12.2494C35.8779 10.5833 36.1874 9.159 36.8065 7.97619C37.4257 6.78825 38.2687 5.8797 39.3357 5.25075C40.4029 4.62158 41.6109 4.307 42.9596 4.307C43.8203 4.307 44.6206 4.42775 45.3605 4.66926C46.1004 4.91099 46.7598 5.26568 47.3387 5.73377C47.9175 6.19695 48.3931 6.76575 48.7656 7.44014C49.1431 8.10964 49.3897 8.87449 49.5056 9.73536ZM56.5964 20.2069C55.4639 20.2069 54.4825 19.9578 53.652 19.4594C52.8214 18.9612 52.1773 18.2641 51.7192 17.3683C51.2663 16.4722 51.0397 15.4253 51.0397 14.2273C51.0397 13.0296 51.2663 11.98 51.7192 11.079C52.1773 10.1783 52.8214 9.47848 53.652 8.98032C54.4825 8.48193 55.4639 8.23284 56.5964 8.23284C57.7289 8.23284 58.7103 8.48193 59.5408 8.98032C60.3714 9.47848 61.0131 10.1783 61.466 11.079C61.9241 11.98 62.1531 13.0296 62.1531 14.2273C62.1531 15.4253 61.9241 16.4722 61.466 17.3683C61.0131 18.2641 60.3714 18.9612 59.5408 19.4594C58.7103 19.9578 57.7289 20.2069 56.5964 20.2069ZM56.6116 18.0175C57.2256 18.0175 57.7389 17.8488 58.1517 17.5115C58.5643 17.1693 58.8713 16.7113 59.0728 16.1376C59.2791 15.5636 59.3822 14.9244 59.3822 14.22C59.3822 13.5102 59.2791 12.8685 59.0728 12.2946C58.8713 11.7158 58.5643 11.2553 58.1517 10.913C57.7389 10.5708 57.2256 10.3997 56.6116 10.3997C55.9824 10.3997 55.4588 10.5708 55.0411 10.913C54.6285 11.2553 54.3188 11.7158 54.1125 12.2946C53.9113 12.8685 53.8106 13.5102 53.8106 14.22C53.8106 14.9244 53.9113 15.5636 54.1125 16.1376C54.3188 16.7113 54.6285 17.1693 55.0411 17.5115C55.4588 17.8488 55.9824 18.0175 56.6116 18.0175ZM68.3646 20.1842C67.4536 20.1842 66.6382 19.9502 65.9183 19.4821C65.1987 19.014 64.6299 18.3345 64.2122 17.4436C63.7944 16.5528 63.5854 15.4707 63.5854 14.1973C63.5854 12.9086 63.7969 11.8216 64.2197 10.9358C64.6475 10.0448 65.2239 9.37288 65.9486 8.91994C66.6734 8.46187 67.4812 8.23284 68.3722 8.23284C69.0515 8.23284 69.6102 8.3487 70.0482 8.58018C70.486 8.80654 70.8334 9.08102 71.09 9.40318C71.3467 9.72021 71.5456 10.0196 71.6864 10.3015H71.7996V4.5182H74.5402V19.9803H71.8526V18.1534H71.6864C71.5456 18.4352 71.3418 18.7347 71.0749 19.0517C70.8082 19.3638 70.4557 19.6305 70.0179 19.852C69.5802 20.0734 69.029 20.1842 68.3646 20.1842ZM69.127 17.942C69.7058 17.942 70.1991 17.786 70.6068 17.4739C71.0145 17.1568 71.3242 16.7164 71.5354 16.1527C71.7468 15.5888 71.8526 14.932 71.8526 14.1821C71.8526 13.4322 71.7468 12.7803 71.5354 12.2266C71.3291 11.673 71.0221 11.2428 70.6144 10.9358C70.2118 10.6288 69.7161 10.475 69.127 10.475C68.5181 10.475 68.0097 10.6337 67.602 10.9507C67.1943 11.268 66.8872 11.7058 66.6809 12.2645C66.4746 12.8231 66.3715 13.4625 66.3715 14.1821C66.3715 14.9068 66.4746 15.5536 66.6809 16.1224C66.8924 16.6861 67.2018 17.1317 67.6095 17.4587C68.0224 17.7809 68.5281 17.942 69.127 17.942ZM82.1749 20.2069C81.0121 20.2069 80.008 19.9654 79.1625 19.4821C78.3219 18.994 77.6751 18.3045 77.2222 17.4135C76.7693 16.5176 76.5427 15.4632 76.5427 14.2501C76.5427 13.0572 76.7693 12.0103 77.2222 11.1093C77.6803 10.2035 78.3195 9.49876 79.1398 8.99547C79.9603 8.48705 80.9241 8.23284 82.0314 8.23284C82.7461 8.23284 83.4205 8.3487 84.0548 8.58018C84.694 8.80654 85.2577 9.159 85.7461 9.63711C86.2391 10.1152 86.6268 10.7243 86.9086 11.4642C87.1904 12.199 87.3315 13.0748 87.3315 14.0914V14.9296H77.8262V13.0873H84.7116C84.7065 12.564 84.5933 12.0983 84.3719 11.6906C84.1504 11.278 83.8409 10.9534 83.4433 10.7168C83.0507 10.4802 82.5926 10.3619 82.0691 10.3619C81.5105 10.3619 81.0197 10.4978 80.5969 10.7696C80.1742 11.0363 79.8445 11.3887 79.6079 11.8265C79.3764 12.2594 79.2581 12.7351 79.2532 13.2535V14.8616C79.2532 15.536 79.3764 16.1148 79.623 16.5981C79.8697 17.0762 80.2145 17.4436 80.6575 17.7005C81.1004 17.952 81.6188 18.0779 82.2125 18.0779C82.6102 18.0779 82.97 18.0224 83.2922 17.9117C83.6144 17.796 83.8937 17.6274 84.1304 17.4059C84.3667 17.1845 84.5454 16.9102 84.6664 16.5829L87.2183 16.8699C87.0572 17.5443 86.7502 18.1331 86.297 18.6366C85.8492 19.1348 85.2753 19.5225 84.5757 19.7992C83.8761 20.071 83.0759 20.2069 82.1749 20.2069ZM95.1056 8.3839V10.4978H88.2505V8.3839H95.1056ZM89.9642 19.9803V7.28909C89.9642 6.50887 90.1253 5.85964 90.4474 5.3412C90.7745 4.82276 91.2125 4.43533 91.761 4.17867C92.3098 3.92179 92.9187 3.79346 93.5882 3.79346C94.0612 3.79346 94.4816 3.83133 94.849 3.90686C95.2164 3.98216 95.4882 4.05012 95.6644 4.11072L95.1208 6.22458C95.0049 6.18938 94.859 6.15418 94.6828 6.11898C94.5067 6.07865 94.3105 6.05838 94.0939 6.05838C93.5857 6.05838 93.2257 6.1818 93.0142 6.42844C92.8079 6.66994 92.7048 7.01728 92.7048 7.47022V19.9803H89.9642ZM96.8343 19.9803V8.3839H99.4844V10.3166H99.6052C99.8166 9.64714 100.179 9.13137 100.692 8.76888C101.211 8.4015 101.802 8.21769 102.466 8.21769C102.618 8.21769 102.786 8.22527 102.972 8.24042C103.164 8.25045 103.322 8.26805 103.448 8.29322V10.8074C103.332 10.7671 103.148 10.7319 102.897 10.7016C102.65 10.6664 102.411 10.6488 102.18 10.6488C101.681 10.6488 101.233 10.7571 100.836 10.9734C100.443 11.1849 100.134 11.4792 99.907 11.8568C99.6807 12.2342 99.5675 12.6696 99.5675 13.1628V19.9803H96.8343ZM109.508 20.2069C108.346 20.2069 107.342 19.9654 106.496 19.4821C105.656 18.994 105.009 18.3045 104.556 17.4135C104.103 16.5176 103.876 15.4632 103.876 14.2501C103.876 13.0572 104.103 12.0103 104.556 11.1093C105.014 10.2035 105.653 9.49876 106.473 8.99547C107.294 8.48705 108.258 8.23284 109.365 8.23284C110.08 8.23284 110.754 8.3487 111.388 8.58018C112.028 8.80654 112.591 9.159 113.079 9.63711C113.573 10.1152 113.96 10.7243 114.242 11.4642C114.524 12.199 114.665 13.0748 114.665 14.0914V14.9296H105.16V13.0873H112.045C112.04 12.564 111.927 12.0983 111.706 11.6906C111.484 11.278 111.174 10.9534 110.777 10.7168C110.384 10.4802 109.926 10.3619 109.403 10.3619C108.844 10.3619 108.353 10.4978 107.931 10.7696C107.508 11.0363 107.178 11.3887 106.942 11.8265C106.71 12.2594 106.592 12.7351 106.587 13.2535V14.8616C106.587 15.536 106.71 16.1148 106.957 16.5981C107.203 17.0762 107.548 17.4436 107.991 17.7005C108.434 17.952 108.952 18.0779 109.546 18.0779C109.944 18.0779 110.304 18.0224 110.626 17.9117C110.948 17.796 111.227 17.6274 111.464 17.4059C111.7 17.1845 111.879 16.9102 112 16.5829L114.552 16.8699C114.391 17.5443 114.084 18.1331 113.631 18.6366C113.183 19.1348 112.609 19.5225 111.909 19.7992C111.21 20.071 110.409 20.2069 109.508 20.2069ZM125.731 11.4491L123.24 11.7209C123.169 11.4691 123.046 11.2328 122.869 11.0111C122.698 10.7896 122.467 10.6109 122.175 10.475C121.883 10.3394 121.526 10.2714 121.103 10.2714C120.534 10.2714 120.056 10.3946 119.668 10.6412C119.286 10.8879 119.097 11.2076 119.102 11.6001C119.097 11.9372 119.221 12.2117 119.472 12.4229C119.729 12.6344 120.152 12.8081 120.74 12.944L122.719 13.3667C123.816 13.6033 124.631 13.9782 125.165 14.4916C125.703 15.0051 125.975 15.677 125.98 16.5074C125.975 17.2373 125.761 17.8816 125.338 18.4401C124.921 18.994 124.339 19.4267 123.594 19.7388C122.849 20.0509 121.994 20.2069 121.027 20.2069C119.608 20.2069 118.466 19.9099 117.6 19.3159C116.734 18.7171 116.218 17.884 116.052 16.8171L118.717 16.5604C118.838 17.0838 119.095 17.479 119.487 17.7457C119.88 18.0124 120.391 18.1458 121.02 18.1458C121.669 18.1458 122.19 18.0124 122.583 17.7457C122.98 17.479 123.179 17.1493 123.179 16.7567C123.179 16.4245 123.051 16.15 122.794 15.9337C122.542 15.7174 122.15 15.5512 121.616 15.4353L119.638 15.0203C118.526 14.7885 117.703 14.3987 117.17 13.8499C116.636 13.2963 116.372 12.5967 116.377 11.751C116.372 11.0363 116.566 10.4173 116.958 9.89377C117.356 9.3653 117.907 8.95759 118.611 8.67063C119.321 8.37877 120.139 8.23284 121.065 8.23284C122.424 8.23284 123.494 8.52225 124.274 9.10107C125.059 9.67989 125.545 10.4626 125.731 11.4491ZM130.555 13.1855V19.9803H127.822V4.5182H130.495V10.3543H130.631C130.902 9.69994 131.323 9.18417 131.892 8.80654C132.465 8.424 133.195 8.23284 134.081 8.23284C134.886 8.23284 135.588 8.4015 136.187 8.73858C136.786 9.07589 137.249 9.56916 137.577 10.2184C137.909 10.8678 138.075 11.6605 138.075 12.5967V19.9803H135.342V13.0193C135.342 12.2393 135.14 11.6329 134.738 11.2C134.34 10.762 133.781 10.543 133.062 10.543C132.578 10.543 132.146 10.6488 131.763 10.8602C131.386 11.0666 131.089 11.366 130.872 11.7586C130.661 12.1511 130.555 12.6268 130.555 13.1855Z" fill="white"/>
</g>
<defs>
  <clipPath id="clip0_1490_28654">
    <rect width="138.074" height="24" fill="white"/>
  </clipPath>
</defs>
</svg>
