<svg width="159" height="23" viewBox="0 0 159 23" fill="none" xmlns="http://www.w3.org/2000/svg">
<path d="M18.9111 6.88178C18.9111 6.88178 22.662 10.5458 21.568 16.619C25.3189 15.1634 26.7775 12.7542 27.1943 10.345C27.1943 10.345 28.4446 5.77756 30.4242 3.87028C26.5171 4.47258 26.1524 3.01703 18.9111 6.88178Z" fill="#5FFFBF"/>
<path d="M19.6919 18.025C19.7961 17.5733 21.2547 12.8051 18.3895 8.94036C13.5967 3.82081 6.35547 3.06794 6.35547 3.06794C7.76205 5.6779 7.81414 8.13729 9.32491 13.1564C11.2003 18.3262 18.0769 18.6775 18.5979 18.7277C19.0667 19.4304 20.1086 20.384 22.5571 20.886L22.8176 19.6312C20.6817 19.2296 19.9524 18.4266 19.6919 18.025ZM12.9195 11.6005C12.3464 9.84381 10.8357 6.93269 8.96024 5.42694C8.96024 5.42694 14.3782 6.83231 17.556 16.6197C14.6386 15.7162 13.3363 12.9055 12.9195 11.6005Z" fill="#5FFFBF"/>
<path d="M7.13707 1.5621C4.11554 2.96746 2.86525 6.33029 2.86525 11.5C2.86525 16.5694 4.06344 19.9824 7.13707 21.438L6.7724 22.6928C2.08381 21.1368 -7.94913e-07 17.6234 -7.94913e-07 11.5C-7.94913e-07 5.32646 2.13591 1.81305 6.7724 0.257114L7.13707 1.5621Z" fill="white"/>
<path d="M29.6425 0.307243C34.3311 1.86318 36.4149 5.37659 36.4149 11.5502C36.4149 17.6735 34.279 21.1869 29.6425 22.7429L29.2778 21.4881C32.2994 20.0325 33.5497 16.6195 33.5497 11.5502C33.5497 6.38042 32.3515 3.01758 29.2778 1.61222L29.6425 0.307243Z" fill="white"/>
<path d="M52.9354 16.9711C51.4247 17.6236 49.5492 17.8244 47.8822 17.8244C43.6624 17.8244 41.6307 16.0677 42.2559 11.6006C42.881 7.38454 44.5481 5.67802 48.9762 5.67802C50.6432 5.67802 52.675 5.92898 54.0815 6.53128L53.4564 9.09105H49.4971C47.7259 9.09105 47.1007 9.69335 46.7882 11.7512C46.4756 14.06 46.8924 14.4616 48.6115 14.4616C49.5492 14.4616 51.06 14.4615 52.5187 14.2608L52.9354 16.9711Z" fill="white"/>
<path d="M68.3555 11.9523C67.6782 16.3189 65.8549 17.8247 61.2705 17.8247C56.6861 17.8247 54.7065 16.1684 55.3837 11.6009C56.0089 7.18407 57.8322 5.62812 62.5208 5.62812C67.1573 5.62812 69.0327 7.38483 68.3555 11.9523ZM59.9681 11.9523C59.6556 14.3113 59.8639 14.8634 61.4268 14.8634C62.9376 14.8634 63.4585 14.2109 63.8232 11.6009C64.1879 9.19173 63.9274 8.63962 62.4687 8.63962C60.9058 8.63962 60.3849 9.19173 59.9681 11.9523Z" fill="white"/>
<path d="M82.3693 17.5235H78.931L78.8789 15.5661C77.7328 16.6201 76.0657 17.8247 74.1903 17.8247C71.3771 17.8247 70.1269 15.9174 70.752 11.5005C71.4292 6.68214 73.4089 5.67831 75.9615 5.67831C77.316 5.67831 78.6705 5.77869 79.8166 6.02965C79.8166 5.27678 79.8166 4.52391 79.9729 3.67065L80.3896 1.31164H84.7657L82.3693 17.5235ZM77.7849 8.38866C75.9615 8.38866 75.4927 8.74 75.128 11.4503C74.8154 13.5584 74.8154 14.3615 75.8573 14.3113C76.8472 14.3113 77.6807 13.8094 78.5663 13.1067L79.2435 8.38866H77.7849V8.38866Z" fill="white"/>
<path d="M97.4772 16.871C95.8623 17.5737 93.7784 17.8247 91.9551 17.8247C86.8498 17.8247 85.4432 15.6664 85.912 11.6009C86.4851 6.78253 88.7252 5.62812 93.0491 5.62812C97.7898 5.62812 99.0401 7.13387 98.6754 9.79403C98.3628 11.9523 96.8 12.6048 93.6222 12.8055L90.3401 13.0565C90.3922 14.3113 91.0174 14.512 92.3719 14.512C93.4138 14.512 95.706 14.4117 97.1647 14.2109L97.4772 16.871ZM92.6323 10.6473C93.7263 10.5469 94.2994 10.3963 94.4036 9.39249C94.4557 8.63962 94.1431 8.48904 92.9449 8.48904C91.4862 8.48904 90.9653 8.94077 90.6006 10.7979L92.6323 10.6473Z" fill="white"/>
<path d="M108.104 2.66623C106.646 2.66623 106.021 2.96738 105.812 4.47313L105.552 6.12945H109.198L108.938 7.88616H105.291L103.676 18.8279C103.364 20.936 102.113 22.1406 99.8211 22.1406C99.0918 22.1406 98.102 22.0904 96.9038 21.9398L97.2685 20.2835H99.0918C100.55 20.2835 101.124 19.9823 101.384 18.4766L102.947 7.88616H100.863L101.071 6.28003L103.207 6.17964L103.52 4.17198C103.832 2.06393 105.083 0.859332 107.375 0.859332C108.261 0.859332 109.876 0.859333 110.813 1.00991L110.449 2.66623H108.104V2.66623Z" fill="white"/>
<path d="M119.097 7.98704H118.42C117.066 7.98704 115.815 8.8403 113.731 10.2959L112.69 17.5234H110.345L112.012 6.18015H113.784L113.679 8.79011C115.555 6.93302 117.378 5.87899 118.993 5.87899H119.618L119.097 7.98704Z" fill="white"/>
<path d="M130.661 17.1721C129.359 17.674 127.223 17.8246 125.816 17.8246C121.753 17.8246 120.346 15.8169 120.919 11.5506C121.544 7.13378 123.159 5.87899 127.431 5.87899C131.286 5.87899 132.224 7.28436 131.911 9.54298C131.547 11.8016 130.192 12.6047 127.275 12.8054L123.211 13.1568C123.211 15.4154 124.305 15.9173 126.181 15.9173C127.483 15.9173 129.202 15.7667 130.557 15.6162L130.661 17.1721ZM127.275 11.1491C128.733 11.0487 129.358 10.6472 129.567 9.34222C129.775 7.78628 128.942 7.73608 127.066 7.73608C124.67 7.73608 123.836 8.38857 123.368 11.5005L127.275 11.1491Z" fill="white"/>
<path d="M137.122 11.9018C135.455 11.1489 134.621 10.2455 134.83 8.58916C135.09 6.43092 136.705 5.82862 139.831 5.87881C141.498 5.87881 143.53 6.07958 144.884 6.28034L144.572 7.88647C143.061 7.83628 141.654 7.78609 139.883 7.78609C137.956 7.78609 137.226 7.83628 137.122 8.78993C137.018 9.64318 137.539 9.89414 138.529 10.2957L141.706 11.701C143.53 12.5041 144.311 13.257 144.051 14.9635C143.686 17.5233 141.759 17.8244 138.476 17.8244C135.924 17.8244 135.611 17.6738 133.892 17.5233L134.153 15.8669C135.247 15.9673 136.757 15.9673 137.851 15.9673C140.821 15.9673 141.602 15.7164 141.758 14.8129C141.915 13.9597 141.342 13.8593 140.3 13.3574L137.122 11.9018Z" fill="white"/>
<path d="M151.239 5.7285C151.083 6.68214 150.874 7.73617 150.666 8.53923C152.698 6.78253 154.417 5.92927 156.136 5.92927C158.116 5.92927 159.262 7.03348 158.949 9.14153L157.699 17.6239H155.355L156.501 9.69364C156.709 8.28828 156.449 7.83655 155.407 7.83655C153.948 7.83655 152.541 8.79019 150.51 10.3461L149.468 17.6239H147.124L149.52 1.31164H151.864L151.239 5.7285Z" fill="white"/>
</svg>
