<svg {% if include.class %} class="{{ include.class }}"{% endif %} {% if include.width %} width="{{ include.width }}"{% endif %}{% if include.height %} height="{{ include.height }}"{% endif %} viewBox="0 0 43 28" fill="none" xmlns="http://www.w3.org/2000/svg">
<path d="M21.9116 8.2927C23.2715 9.91067 24.2527 11.8224 24.7813 13.8836C25.3099 15.9448 25.3719 18.1014 24.9627 20.1906C29.2872 18.4328 30.9643 15.4851 31.4755 12.5374C31.4755 12.5374 32.9493 6.95185 35.2412 4.63C30.7126 5.35441 30.252 3.5434 21.9116 8.2974" fill="#11b5a4"/>
<path d="M14.9846 14.0019C14.0792 11.152 12.518 8.56409 10.4314 6.45434C10.4314 6.45434 16.7255 8.14175 20.3538 20.1194C16.9335 19.0673 15.4736 15.6275 14.9808 14.0019H14.9846ZM22.7754 21.8413C22.8768 21.2686 24.5454 15.4742 21.2403 10.7687C15.7038 4.51581 7.36035 3.6373 7.36035 3.6373C8.98913 6.8447 9.04056 9.84245 10.8198 15.9506C12.972 22.2739 20.9279 22.7018 21.5174 22.712C22.0547 23.5725 23.2759 24.7287 26.0791 25.3272L26.3899 23.8213C23.9713 23.3057 23.0894 22.3568 22.7823 21.8342" fill="#11b5a4"/>
<path d="M8.25367 1.79738C4.73513 3.48635 3.32357 7.60982 3.32357 13.9128C3.32357 20.1015 4.73283 24.25 8.25367 26.0602L7.85837 27.6076C2.45161 25.6745 0 21.3805 0 13.9401C0 6.43873 2.45161 2.1408 7.85837 0.25L8.25367 1.79738Z" fill="white"/>
<path d="M34.3101 0.25C39.7223 2.13846 42.1677 6.43872 42.1677 13.9354C42.1677 21.3844 39.7169 25.6753 34.3094 27.5919L33.8872 26.0469C37.4103 24.2429 38.8173 20.0874 38.8173 13.8987C38.8173 7.59574 37.408 3.47696 33.8872 1.78799L34.3101 0.25Z" fill="white"/>
</svg>
