<svg {% if include.class %} class="{{ include.class }}"{% endif %} {% if include.width %} width="{{ include.width }}"{% endif %}{% if include.height %} height="{{ include.height }}"{% endif %} viewBox="0 0 43 28" fill="none" xmlns="http://www.w3.org/2000/svg">
<path d="M18.9111 7.12467C18.9111 7.12467 22.662 10.7887 21.568 16.8618C25.3189 15.4063 26.7775 12.9971 27.1943 10.5879C27.1943 10.5879 28.4446 6.02045 30.4242 4.11317C26.5171 4.71547 26.1524 3.25991 18.9111 7.12467Z" fill="#5FFFBF"/>
<path d="M19.6919 18.2679C19.7961 17.8162 21.2547 13.048 18.3895 9.18324C13.5967 4.0637 6.35547 3.31083 6.35547 3.31083C7.76205 5.92079 7.81414 8.38017 9.32491 13.3993C11.2003 18.5691 18.0769 18.9204 18.5979 18.9706C19.0667 19.6733 20.1086 20.6269 22.5571 21.1288L22.8176 19.8741C20.6817 19.4725 19.9524 18.6695 19.6919 18.2679ZM12.9195 11.8434C12.3464 10.0867 10.8357 7.17558 8.96024 5.66983C8.96024 5.66983 14.3782 7.0752 17.556 16.8626C14.6386 15.9591 13.3363 13.1484 12.9195 11.8434Z" fill="#5FFFBF"/>
<path d="M7.13707 1.80498C4.11554 3.21035 2.86525 6.57318 2.86525 11.7429C2.86525 16.8123 4.06344 20.2253 7.13707 21.6809L6.7724 22.9356C2.08381 21.3797 -7.94913e-07 17.8663 -7.94913e-07 11.7429C-7.94913e-07 5.56935 2.13591 2.05594 6.7724 0.5L7.13707 1.80498Z" fill="white"/>
<path d="M29.642 0.55013C34.3306 2.10607 36.4144 5.61948 36.4144 11.793C36.4144 17.9164 34.2785 21.4298 29.642 22.9858L29.2773 21.731C32.2989 20.2754 33.5492 16.8624 33.5492 11.793C33.5492 6.62331 32.351 3.26047 29.2773 1.85511L29.642 0.55013Z" fill="white"/>
</svg>
