<svg{% if include.class %} class="{{ include.class }}"{% endif %}{% if include.width %} width="{{ include.width }}"{% endif %}{% if include.height %} height="{{ include.height }}"{% endif %} viewBox="0 0 654 137" xmlns="http://www.w3.org/2000/svg" focusable="false"><title>Codefresh</title><g><path fill="#FFFFFF" d="M259.772,89.416c-5.582,2.325-12.558,3.255-18.604,3.255c-15.581,0-23.023-6.744-20.697-23.72 c2.326-16.046,8.372-22.791,24.651-22.791c6.046,0,13.488,0.93,18.836,3.256l-2.325,9.767h-14.418 c-6.511,0-8.837,2.326-9.767,10.232c-1.163,8.837,0.465,10.465,6.744,10.465c3.489,0,9.07,0,14.418-0.697L259.772,89.416z"/><path fill="#FFFFFF" d="M316.748,70.114c-2.325,16.744-9.069,22.558-26.046,22.558c-16.744,0-24.185-6.512-21.627-23.72 c2.326-16.744,9.07-22.791,26.279-22.791C312.097,46.161,319.073,52.672,316.748,70.114z M285.818,70.114 c-1.396,9.07-0.465,11.163,5.349,11.163c5.581,0,7.442-2.325,8.837-12.558c1.396-9.303,0.465-11.396-4.884-11.396 C289.074,57.556,287.214,59.649,285.818,70.114z"/><path fill="#FFFFFF" d="M368.142,91.509h-12.791l-0.232-7.442c-4.186,3.954-10.232,8.604-17.441,8.604 c-10.232,0-14.883-7.209-12.791-24.186c2.326-18.604,9.768-22.325,19.302-22.325c4.884,0,10,0.465,14.186,1.163 c0-3.023,0-5.814,0.698-9.069l1.395-9.07h16.279L368.142,91.509z M351.166,56.625c-6.744,0-8.372,1.395-9.768,11.627 c-1.163,7.907-1.163,11.163,2.791,10.931c3.721,0,6.744-1.861,10-4.651l2.326-17.907H351.166L351.166,56.625z"/><path fill="#FFFFFF" d="M423.722,88.95c-6.046,2.559-13.72,3.489-20.232,3.489c-18.837,0-23.953-8.372-22.325-23.72 c2.093-18.372,10.465-22.791,26.279-22.791c17.441,0,22.092,5.813,20.697,15.813c-1.163,8.372-6.744,10.697-18.604,11.628 l-12.093,0.93c0.233,4.651,2.558,5.581,7.442,5.581c3.953,0,12.325-0.465,17.674-1.163L423.722,88.95z M405.816,65.23 c3.954-0.465,6.046-0.93,6.511-4.883c0.233-3.023-0.93-3.488-5.349-3.488c-5.349,0-7.209,1.628-8.604,8.837L405.816,65.23z"/><path fill="#FFFFFF" d="M462.792,34.766c-5.349,0-7.674,1.163-8.372,6.977l-0.93,6.512h13.488l-0.93,6.744h-13.488l-5.813,41.627 c-1.396,7.907-6.046,12.558-14.418,12.558c-2.791,0-6.279-0.232-10.698-0.697l1.396-6.512h6.744c5.349,0,7.674-1.163,8.372-6.977 l5.582-40.464h-7.674l0.698-6.279l7.907-0.465l1.163-7.442c1.163-7.907,5.814-12.558,14.186-12.558c3.256,0,9.302,0,12.79,0.697 l-1.628,6.279H462.792z"/><path fill="#FFFFFF" d="M503.256,54.998h-2.326c-4.883,0-9.534,3.256-17.208,8.837L480,91.509h-8.604l6.046-43.487h6.512 l-0.465,9.999c6.976-7.208,13.72-11.162,19.535-11.162h2.325L503.256,54.998z"/><path fill="#FFFFFF" d="M545.813,90.113c-4.651,1.86-12.791,2.558-17.907,2.558c-15.115,0-20.232-7.674-18.139-23.953 c2.325-16.977,8.371-21.628,23.953-21.628c14.186,0,17.674,5.349,16.511,13.953c-1.396,8.604-6.511,11.628-16.976,12.558 l-15.117,1.396c0,8.604,3.954,10.465,10.931,10.465c4.884,0,10.931-0.465,16.046-1.163L545.813,90.113z M533.256,67.091 c5.348-0.465,7.674-1.861,8.371-6.744c0.697-6.046-2.326-6.046-9.069-6.046c-8.837,0-11.86,2.325-13.721,14.418L533.256,67.091z"/><path fill="#FFFFFF" d="M569.533,70.114c-6.279-3.023-9.069-6.279-8.371-12.558c0.93-8.372,6.977-10.697,18.371-10.465 c6.047,0,13.721,0.698,18.604,1.628l-1.163,6.046c-5.581-0.232-10.697-0.465-17.209-0.465c-7.209,0-9.768,0.232-10.232,3.72 c-0.465,3.256,1.629,4.186,5.117,5.814l11.627,5.349c6.744,3.023,9.535,5.814,8.604,12.558c-1.396,9.768-8.372,10.93-20.465,10.93 c-9.302,0-10.465-0.698-16.743-1.163l0.93-6.511c3.953,0.465,9.535,0.465,13.721,0.465c10.93,0,13.721-0.931,14.418-4.418 c0.465-3.256-1.628-3.721-5.348-5.582L569.533,70.114z"/><path fill="#FFFFFF" d="M621.393,46.394c-0.465,3.721-1.395,7.674-2.093,10.697c7.442-6.744,13.954-10,20-10 c7.209,0,11.395,4.186,10.232,12.093l-4.651,32.325h-8.371l4.186-30.232c0.697-5.349-0.232-6.977-3.953-6.977 c-5.35,0-10.465,3.72-17.907,9.534l-3.722,27.674h-8.836l8.836-62.325h8.605L621.393,46.394z"/></g><g><g><path fill="#FFFFFF" d="M108.265,42.387c0,0,20.364,20.599,14.513,55.241c20.364-8.192,28.322-21.77,30.663-35.579 c0,0,7.022-25.981,17.789-36.749C149.93,28.577,147.823,20.15,108.265,42.387z"/><path fill="#FFFFFF" d="M112.479,105.352L112.479,105.352c0.468-2.574,8.427-29.493-7.257-51.495 c-26.216-29.024-65.54-33.238-65.54-33.238c7.725,14.981,7.959,28.791,16.386,57.113c10.064,29.493,47.75,31.365,50.559,31.365 c2.575,3.979,8.193,9.363,21.535,12.172l1.404-7.021C118.096,112.14,113.883,107.692,112.479,105.352z M75.495,68.837 c-3.043-9.831-11.47-26.45-21.535-35.11c0,0,29.728,7.725,46.814,63.433C84.858,92.479,77.836,76.327,75.495,68.837z"/></g><g><path fill="#FFFFFF" d="M43.896,12.192C27.276,20.15,20.723,39.11,20.723,68.369c0,28.79,6.554,47.984,23.173,56.41l-1.873,7.257 c-25.747-8.895-37.217-28.791-37.217-63.434c0-34.876,11.47-54.772,37.217-63.667L43.896,12.192z"/><path fill="#FFFFFF" d="M166.782,4.936C192.297,13.83,204,33.727,204,68.603c0,34.643-11.47,54.539-37.218,63.434l-2.106-7.257 c16.619-8.426,23.174-27.62,23.174-56.41c0-29.259-6.555-48.453-23.174-56.177L166.782,4.936z"/></g></g></svg>
