<svg{% if include.class %} class="{{ include.class }}"{% endif %} {% if include.width %} width="{{ include.width }}"{% endif %}{% if include.height %} height="{{ include.height }}"{% endif %} focusable="false" viewBox="0 0 145 24" fill="none" xmlns="http://www.w3.org/2000/svg">
<path d="M19.1108 7.02736C20.2969 8.43851 21.1527 10.1059 21.6137 11.9036C22.0747 13.7014 22.1288 15.5823 21.7719 17.4045C25.5437 15.8713 27.0064 13.3004 27.4523 10.7295C27.4523 10.7295 28.7377 5.8579 30.7367 3.83282C26.7869 4.46464 26.3852 2.88511 19.1108 7.03145" fill="#11b5a4"/>
<path d="M13.0692 12.0068C12.2795 9.52112 10.9179 7.26403 9.09794 5.42395C9.09794 5.42395 14.5875 6.89567 17.752 17.3424C14.7689 16.4247 13.4956 13.4246 13.0658 12.0068H13.0692ZM19.8642 18.8441C19.9525 18.3447 21.4079 13.2909 18.5253 9.18684C13.6964 3.7332 6.41943 2.96698 6.41943 2.96698C7.84002 5.76441 7.88488 8.37899 9.43668 13.7064C11.3138 19.2214 18.2528 19.5947 18.7669 19.6035C19.2355 20.3541 20.3007 21.3625 22.7455 21.8845L23.0166 20.571C20.9072 20.1214 20.138 19.2938 19.8702 18.838" fill="#11b5a4"/>
<path d="M7.19869 1.36226C4.12989 2.83535 2.89875 6.43176 2.89875 11.9291C2.89875 17.3267 4.12788 20.945 7.19869 22.5238L6.85391 23.8734C2.13825 22.1875 0 18.4423 0 11.9529C0 5.41035 2.13825 1.66179 6.85391 0.0126648L7.19869 1.36226Z" fill="white"/>
<path d="M29.9248 0.0126648C34.6451 1.65974 36.778 5.41035 36.778 11.9488C36.778 18.4457 34.6404 22.1881 29.9241 23.8598L29.5559 22.5122C32.6287 20.9388 33.8558 17.3145 33.8558 11.9168C33.8558 6.41947 32.6267 2.82716 29.5559 1.35407L29.9248 0.0126648Z" fill="white"/>
<path d="M50.8367 17.7122C49.4139 18.2688 47.8978 18.5359 46.3741 18.4982C42.6211 18.4982 40.8176 16.8409 41.398 12.655C41.9336 8.70652 43.4145 7.09356 47.3415 7.09356C48.884 7.06757 50.4179 7.33386 51.865 7.87889L51.3295 10.2976L47.8335 10.2758C46.2456 10.2758 45.7094 10.8217 45.4516 12.7826C45.1718 14.9414 45.5386 15.3337 47.0824 15.3337C48.2428 15.3406 49.4027 15.2825 50.5569 15.1597L50.8367 17.7122Z" fill="white"/>
<path d="M57.1048 12.9805C56.8049 15.2055 56.9971 15.7274 58.3935 15.7274C59.7452 15.7274 60.1756 15.1393 60.5177 12.6748C60.8598 10.4075 60.6255 9.87737 59.3127 9.87737C57.8975 9.87737 57.4677 10.4232 57.1035 12.9757L57.1048 12.9805ZM64.5459 12.9839C63.9581 17.062 62.3367 18.4996 58.253 18.4996C54.1693 18.4996 52.4474 16.9303 53.0466 12.6782C53.6076 8.55779 55.235 7.09494 59.3777 7.09494C63.4741 7.09494 65.1484 8.70995 64.5479 12.9839" fill="white"/>
<path d="M72.89 9.63992C71.2585 9.63992 70.8736 9.98789 70.5509 12.4967C70.2938 14.4597 70.251 15.2437 71.2157 15.1795C72.1197 15.0896 72.9671 14.6901 73.6197 14.0462L74.1968 9.6481L72.89 9.63992ZM76.9429 18.2369H73.8754L73.8333 16.4056C72.746 17.6134 71.253 18.3605 69.6505 18.4989C67.1621 18.4989 66.0475 16.7092 66.5817 12.5677C67.1701 8.03173 68.9208 7.09425 71.2157 7.09425C72.3668 7.09355 73.5156 7.19928 74.648 7.41015C74.6371 6.66548 74.6877 5.92119 74.7993 5.18517L75.1628 2.98611H79.0631L76.9429 18.2369Z" fill="white"/>
<path d="M86.0824 11.781C87.0484 11.693 87.5612 11.5415 87.6516 10.6033C87.7185 9.88418 87.4367 9.75181 86.3629 9.77433C85.0528 9.79616 84.6223 10.1878 84.2815 11.9577L86.0824 11.781ZM90.3522 17.6262C88.7943 18.245 87.1312 18.5414 85.4598 18.4982C80.9122 18.4982 79.6737 16.4711 80.0747 12.6768C80.5647 8.16478 82.5865 7.09561 86.4245 7.09561C90.63 7.09561 91.7353 8.51275 91.4006 10.9936C91.1 13.0228 89.7483 13.602 86.9306 13.8279L84.0338 14.0462C84.0787 15.2061 84.6364 15.4211 85.8374 15.4211C86.7786 15.4211 88.787 15.3112 90.0831 15.1597L90.3522 17.6262Z" fill="white"/>
<path d="M99.7909 4.33229C98.4807 4.33229 97.9458 4.63865 97.753 6.03191L97.5174 7.60939H100.754L100.537 9.23463H97.3005L95.8846 19.4616C95.8708 19.8977 95.7705 20.3263 95.5898 20.7217C95.409 21.1172 95.1515 21.4712 94.8328 21.7624C94.5141 22.0536 94.1408 22.276 93.7355 22.4161C93.3301 22.5562 92.9011 22.6112 92.4743 22.5777C91.6072 22.5718 90.7412 22.5133 89.8809 22.4024L90.2035 20.8331H91.8102C93.0989 20.8331 93.6332 20.5267 93.8287 19.1335L95.2017 9.24009H93.3386L93.5348 7.7131L95.4441 7.60529L95.7018 5.70577C95.7146 5.26955 95.8148 4.84061 95.9963 4.44534C96.1778 4.05008 96.4367 3.69684 96.7572 3.40738C97.0776 3.11792 97.4528 2.89835 97.8596 2.76218C98.2664 2.62602 98.6963 2.57614 99.1227 2.61562C100.147 2.6025 101.171 2.65331 102.19 2.76778L101.847 4.34662L99.7909 4.33229Z" fill="#11b5a4"/>
<path d="M109.574 9.29606H108.988C107.811 9.29606 106.672 10.0957 104.858 11.4555L103.935 18.2363H101.853L103.332 7.59235H104.921L104.812 10.035C106.48 8.29171 108.115 7.30579 109.533 7.30579H110.091L109.574 9.29606Z" fill="#11b5a4"/>
<path d="M116.803 12.2606C118.091 12.1747 118.648 11.8049 118.819 10.5815C119.015 9.12068 118.283 9.08042 116.61 9.08042C114.488 9.08042 113.758 9.66789 113.307 12.5909L116.803 12.2606ZM119.806 17.8889C118.409 18.3247 116.952 18.532 115.491 18.503C111.862 18.503 110.622 16.6035 111.135 12.6352C111.694 8.4916 113.13 7.31326 116.921 7.31326C120.353 7.31326 121.191 8.6226 120.89 10.7596C120.547 12.8747 119.346 13.6382 116.794 13.834L113.165 14.1622C113.143 16.2992 114.13 16.7324 115.802 16.7324C116.962 16.7324 118.463 16.6028 119.665 16.4711L119.806 17.8889Z" fill="#11b5a4"/>
<path d="M125.553 12.9586C124.053 12.2388 123.344 11.4112 123.537 9.8603C123.774 7.83318 125.21 7.26141 127.955 7.30917C129.456 7.33495 130.955 7.45916 132.44 7.68103L132.182 9.18209C130.853 9.14047 129.608 9.09475 128.021 9.07224C126.304 9.07224 125.661 9.11659 125.552 10.0097C125.447 10.8094 125.945 11.0332 126.799 11.4275L129.631 12.7369C131.26 13.5004 131.928 14.1759 131.711 15.8113C131.39 18.2321 129.694 18.4723 126.757 18.4723C125.4 18.4751 124.045 18.3727 122.703 18.1659L122.939 16.5967C123.905 16.6826 125.256 16.7065 126.22 16.7065C128.859 16.7065 129.545 16.4889 129.673 15.6148C129.801 14.8309 129.281 14.6992 128.363 14.2632L125.553 12.9586Z" fill="#11b5a4"/>
<path d="M138.084 7.15908C137.963 8.04102 137.791 8.91496 137.57 9.77638C139.389 8.13886 140.909 7.30918 142.414 7.30918C142.793 7.25912 143.178 7.30644 143.534 7.44684C143.891 7.58725 144.207 7.81627 144.455 8.11307C144.702 8.40988 144.873 8.76503 144.951 9.14622C145.03 9.52741 145.013 9.92253 144.904 10.2956L143.788 18.2301H141.729L142.737 10.8176C142.909 9.48641 142.67 9.09408 141.772 9.09408C140.484 9.09408 139.241 9.9879 137.445 11.4276L136.523 18.224H134.437L136.559 2.96088H138.619L138.084 7.15908Z" fill="#11b5a4"/>
</svg>
