<svg {% if include.class %} class="{{ include.class }}"{% endif %} {% if include.width %} width="{{ include.width }}"{% endif %}{% if include.height %} height="{{ include.height }}"{% endif %} viewBox="0 0 777 297" fill="none" xmlns="http://www.w3.org/2000/svg">
<path d="M148.634 124.976C162.569 141.282 168.301 163.025 164.051 184.075C185.892 175.378 194.392 160.752 196.961 146.125C196.961 146.125 204.373 118.354 216.035 106.89C193.206 110.349 190.933 101.355 148.634 124.976Z" fill="#0BA890"/>
<path d="M113.642 153.34C109.096 139.207 101.19 126.359 90.615 115.884C90.615 115.884 122.438 124.284 140.82 183.68C123.525 178.442 116.113 161.345 113.642 153.34ZM153.075 192.179C153.569 189.313 162.068 160.554 145.267 137.231C117.299 106.198 75 101.85 75 101.85C83.2028 117.761 83.4993 132.684 92.4927 163.025C103.364 194.452 143.686 196.528 146.651 196.627C149.319 200.876 155.546 206.608 169.777 209.573L171.358 202.062C159.103 199.493 154.656 194.749 153.075 192.179Z" fill="#0BA890"/>
<path d="M297.35 143.407H284.676C284.314 141.328 283.648 139.487 282.676 137.883C281.705 136.256 280.496 134.878 279.05 133.749C277.605 132.619 275.955 131.772 274.103 131.207C272.273 130.62 270.296 130.326 268.173 130.326C264.4 130.326 261.056 131.275 258.142 133.173C255.228 135.048 252.946 137.804 251.297 141.441C249.648 145.056 248.823 149.472 248.823 154.691C248.823 160 249.648 164.473 251.297 168.11C252.969 171.725 255.25 174.459 258.142 176.311C261.056 178.141 264.389 179.056 268.139 179.056C270.217 179.056 272.16 178.785 273.967 178.243C275.797 177.678 277.435 176.853 278.881 175.769C280.349 174.684 281.581 173.352 282.575 171.77C283.591 170.189 284.292 168.381 284.676 166.348L297.35 166.416C296.875 169.714 295.847 172.809 294.266 175.701C292.707 178.593 290.662 181.146 288.132 183.36C285.602 185.551 282.642 187.268 279.254 188.51C275.865 189.73 272.104 190.34 267.969 190.34C261.87 190.34 256.425 188.928 251.636 186.104C246.846 183.28 243.074 179.203 240.317 173.871C237.561 168.54 236.183 162.146 236.183 154.691C236.183 147.213 237.572 140.82 240.351 135.511C243.13 130.179 246.914 126.101 251.703 123.278C256.493 120.454 261.915 119.042 267.969 119.042C271.832 119.042 275.424 119.584 278.745 120.668C282.066 121.753 285.026 123.345 287.624 125.446C290.222 127.525 292.357 130.078 294.029 133.105C295.723 136.11 296.83 139.543 297.35 143.407ZM329.177 190.408C324.094 190.408 319.689 189.29 315.961 187.053C312.233 184.817 309.342 181.688 307.286 177.667C305.253 173.645 304.236 168.946 304.236 163.569C304.236 158.193 305.253 153.482 307.286 149.438C309.342 145.395 312.233 142.254 315.961 140.018C319.689 137.781 324.094 136.663 329.177 136.663C334.26 136.663 338.665 137.781 342.393 140.018C346.121 142.254 349.001 145.395 351.034 149.438C353.09 153.482 354.118 158.193 354.118 163.569C354.118 168.946 353.09 173.645 351.034 177.667C349.001 181.688 346.121 184.817 342.393 187.053C338.665 189.29 334.26 190.408 329.177 190.408ZM329.245 180.581C332.001 180.581 334.305 179.824 336.158 178.31C338.01 176.774 339.388 174.718 340.292 172.143C341.218 169.567 341.681 166.698 341.681 163.536C341.681 160.35 341.218 157.47 340.292 154.894C339.388 152.296 338.01 150.229 336.158 148.693C334.305 147.157 332.001 146.389 329.245 146.389C326.421 146.389 324.071 147.157 322.196 148.693C320.344 150.229 318.954 152.296 318.028 154.894C317.125 157.47 316.673 160.35 316.673 163.536C316.673 166.698 317.125 169.567 318.028 172.143C318.954 174.718 320.344 176.774 322.196 178.31C324.071 179.824 326.421 180.581 329.245 180.581ZM381.998 190.306C377.909 190.306 374.249 189.256 371.018 187.155C367.788 185.054 365.235 182.004 363.36 178.005C361.485 174.007 360.547 169.15 360.547 163.434C360.547 157.65 361.496 152.771 363.394 148.795C365.314 144.796 367.901 141.78 371.154 139.747C374.407 137.691 378.033 136.663 382.032 136.663C385.081 136.663 387.589 137.183 389.555 138.222C391.52 139.238 393.079 140.47 394.231 141.916C395.383 143.339 396.276 144.683 396.908 145.948H397.416V119.99H409.717V189.391H397.654V181.191H396.908C396.276 182.456 395.361 183.8 394.163 185.223C392.966 186.624 391.384 187.821 389.419 188.815C387.454 189.809 384.98 190.306 381.998 190.306ZM385.42 180.242C388.018 180.242 390.232 179.542 392.062 178.141C393.892 176.718 395.282 174.741 396.23 172.211C397.179 169.68 397.654 166.732 397.654 163.366C397.654 160 397.179 157.074 396.23 154.589C395.304 152.104 393.926 150.173 392.096 148.795C390.289 147.417 388.064 146.727 385.42 146.727C382.687 146.727 380.405 147.439 378.575 148.862C376.745 150.286 375.367 152.251 374.441 154.759C373.515 157.266 373.052 160.136 373.052 163.366C373.052 166.619 373.515 169.522 374.441 172.075C375.39 174.605 376.779 176.605 378.609 178.073C380.462 179.519 382.732 180.242 385.42 180.242ZM443.985 190.408C438.766 190.408 434.259 189.324 430.464 187.155C426.691 184.964 423.788 181.869 421.755 177.87C419.722 173.849 418.705 169.116 418.705 163.671C418.705 158.317 419.722 153.618 421.755 149.574C423.811 145.508 426.68 142.345 430.362 140.086C434.045 137.804 438.371 136.663 443.341 136.663C446.549 136.663 449.576 137.183 452.423 138.222C455.292 139.238 457.822 140.82 460.014 142.966C462.227 145.112 463.967 147.846 465.232 151.167C466.497 154.465 467.13 158.396 467.13 162.959V166.721H424.466V158.452H455.371C455.348 156.103 454.84 154.013 453.846 152.183C452.852 150.331 451.463 148.874 449.678 147.812C447.916 146.75 445.86 146.219 443.51 146.219C441.003 146.219 438.8 146.829 436.902 148.049C435.005 149.246 433.525 150.828 432.463 152.793C431.424 154.736 430.893 156.871 430.871 159.198V166.416C430.871 169.443 431.424 172.041 432.531 174.21C433.638 176.356 435.186 178.005 437.174 179.158C439.162 180.287 441.489 180.852 444.154 180.852C445.939 180.852 447.554 180.603 449 180.106C450.446 179.587 451.7 178.83 452.762 177.836C453.823 176.842 454.625 175.611 455.168 174.142L466.622 175.43C465.899 178.457 464.521 181.1 462.487 183.36C460.477 185.596 457.901 187.336 454.761 188.578C451.621 189.798 448.029 190.408 443.985 190.408ZM502.024 137.341V146.829H471.255V137.341H502.024ZM478.947 189.391V132.427C478.947 128.925 479.67 126.011 481.116 123.684C482.584 121.357 484.55 119.618 487.012 118.466C489.475 117.313 492.208 116.737 495.213 116.737C497.336 116.737 499.223 116.907 500.872 117.246C502.521 117.584 503.741 117.889 504.532 118.161L502.092 127.649C501.572 127.491 500.917 127.333 500.126 127.175C499.336 126.994 498.455 126.903 497.483 126.903C495.202 126.903 493.586 127.457 492.637 128.564C491.711 129.648 491.248 131.207 491.248 133.24V189.391H478.947ZM509.783 189.391V137.341H521.678V146.016H522.22C523.169 143.011 524.795 140.696 527.1 139.069C529.427 137.42 532.081 136.595 535.063 136.595C535.741 136.595 536.498 136.629 537.334 136.697C538.192 136.742 538.904 136.821 539.469 136.934V148.219C538.949 148.038 538.124 147.88 536.995 147.744C535.888 147.586 534.815 147.507 533.775 147.507C531.539 147.507 529.528 147.993 527.744 148.964C525.981 149.913 524.592 151.234 523.575 152.929C522.559 154.623 522.051 156.577 522.051 158.791V189.391H509.783ZM566.67 190.408C561.452 190.408 556.945 189.324 553.149 187.155C549.377 184.964 546.474 181.869 544.44 177.87C542.407 173.849 541.391 169.116 541.391 163.671C541.391 158.317 542.407 153.618 544.44 149.574C546.496 145.508 549.365 142.345 553.048 140.086C556.73 137.804 561.056 136.663 566.027 136.663C569.235 136.663 572.262 137.183 575.108 138.222C577.978 139.238 580.508 140.82 582.699 142.966C584.913 145.112 586.653 147.846 587.918 151.167C589.183 154.465 589.815 158.396 589.815 162.959V166.721H547.151V158.452H578.057C578.034 156.103 577.526 154.013 576.532 152.183C575.538 150.331 574.148 148.874 572.364 147.812C570.601 146.75 568.546 146.219 566.196 146.219C563.688 146.219 561.486 146.829 559.588 148.049C557.69 149.246 556.211 150.828 555.149 152.793C554.11 154.736 553.579 156.871 553.556 159.198V166.416C553.556 169.443 554.11 172.041 555.217 174.21C556.324 176.356 557.871 178.005 559.859 179.158C561.847 180.287 564.174 180.852 566.84 180.852C568.625 180.852 570.24 180.603 571.686 180.106C573.132 179.587 574.385 178.83 575.447 177.836C576.509 176.842 577.311 175.611 577.853 174.142L589.307 175.43C588.584 178.457 587.206 181.1 585.173 183.36C583.162 185.596 580.587 187.336 577.447 188.578C574.306 189.798 570.714 190.408 566.67 190.408ZM639.485 151.099L628.302 152.319C627.986 151.189 627.432 150.128 626.641 149.133C625.873 148.139 624.834 147.337 623.524 146.727C622.213 146.118 620.609 145.813 618.712 145.813C616.159 145.813 614.013 146.366 612.273 147.473C610.556 148.58 609.709 150.015 609.732 151.777C609.709 153.29 610.263 154.522 611.392 155.47C612.544 156.419 614.442 157.199 617.085 157.809L625.964 159.706C630.889 160.768 634.548 162.451 636.943 164.755C639.36 167.06 640.58 170.076 640.603 173.803C640.58 177.079 639.62 179.971 637.722 182.478C635.847 184.964 633.238 186.906 629.895 188.307C626.551 189.708 622.71 190.408 618.373 190.408C612.002 190.408 606.874 189.075 602.988 186.409C599.102 183.721 596.787 179.982 596.041 175.193L608.003 174.041C608.546 176.39 609.698 178.164 611.46 179.361C613.222 180.558 615.515 181.157 618.339 181.157C621.253 181.157 623.591 180.558 625.354 179.361C627.138 178.164 628.031 176.684 628.031 174.922C628.031 173.431 627.455 172.199 626.302 171.228C625.173 170.257 623.411 169.511 621.016 168.991L612.138 167.128C607.145 166.088 603.451 164.338 601.057 161.875C598.662 159.39 597.476 156.25 597.498 152.454C597.476 149.246 598.346 146.468 600.108 144.118C601.892 141.746 604.366 139.916 607.529 138.628C610.714 137.318 614.385 136.663 618.542 136.663C624.642 136.663 629.443 137.962 632.944 140.56C636.469 143.158 638.649 146.671 639.485 151.099ZM661.137 158.893V189.391H648.87V119.99H660.866V146.185H661.476C662.696 143.248 664.583 140.933 667.136 139.238C669.711 137.521 672.987 136.663 676.963 136.663C680.577 136.663 683.729 137.42 686.417 138.933C689.106 140.447 691.184 142.661 692.653 145.575C694.144 148.49 694.889 152.048 694.889 156.25V189.391H682.622V158.147C682.622 154.646 681.718 151.924 679.911 149.981C678.126 148.015 675.619 147.032 672.388 147.032C670.219 147.032 668.276 147.507 666.559 148.456C664.865 149.382 663.532 150.726 662.561 152.488C661.612 154.25 661.137 156.385 661.137 158.893Z" fill="white"/>
  </svg>
