<svg width="52" height="52" viewBox="0 0 52 52" fill="none" xmlns="http://www.w3.org/2000/svg">
<path d="M26 3.25C13.4367 3.25 3.25 13.4367 3.25 26C3.25 38.5633 13.4367 48.75 26 48.75C38.5633 48.75 48.75 38.5633 48.75 26C48.75 13.4367 38.5633 3.25 26 3.25ZM26 44.8906C15.5695 44.8906 7.10938 36.4305 7.10938 26C7.10938 15.5695 15.5695 7.10938 26 7.10938C36.4305 7.10938 44.8906 15.5695 44.8906 26C44.8906 36.4305 36.4305 44.8906 26 44.8906Z" fill="#11b5a4"/>
<path d="M23.5625 17.0625C23.5625 17.709 23.8193 18.329 24.2764 18.7861C24.7335 19.2432 25.3535 19.5 26 19.5C26.6465 19.5 27.2665 19.2432 27.7236 18.7861C28.1807 18.329 28.4375 17.709 28.4375 17.0625C28.4375 16.416 28.1807 15.796 27.7236 15.3389C27.2665 14.8818 26.6465 14.625 26 14.625C25.3535 14.625 24.7335 14.8818 24.2764 15.3389C23.8193 15.796 23.5625 16.416 23.5625 17.0625ZM27.2188 22.75H24.7812C24.5578 22.75 24.375 22.9328 24.375 23.1562V36.9688C24.375 37.1922 24.5578 37.375 24.7812 37.375H27.2188C27.4422 37.375 27.625 37.1922 27.625 36.9688V23.1562C27.625 22.9328 27.4422 22.75 27.2188 22.75Z" fill="#11b5a4"/>
</svg>
