<svg width="28" height="28" viewBox="0 0 28 28" fill="none" xmlns="http://www.w3.org/2000/svg">
<path d="M14 1.75C7.23516 1.75 1.75 7.23516 1.75 14C1.75 20.7648 7.23516 26.25 14 26.25C20.7648 26.25 26.25 20.7648 26.25 14C26.25 7.23516 20.7648 1.75 14 1.75ZM14 24.1719C8.38359 24.1719 3.82812 19.6164 3.82812 14C3.82812 8.38359 8.38359 3.82812 14 3.82812C19.6164 3.82812 24.1719 8.38359 24.1719 14C24.1719 19.6164 19.6164 24.1719 14 24.1719Z" fill="#11B5A4"/>
<path d="M12.6875 9.1875C12.6875 9.5356 12.8258 9.86944 13.0719 10.1156C13.3181 10.3617 13.6519 10.5 14 10.5C14.3481 10.5 14.6819 10.3617 14.9281 10.1156C15.1742 9.86944 15.3125 9.5356 15.3125 9.1875C15.3125 8.8394 15.1742 8.50556 14.9281 8.25942C14.6819 8.01328 14.3481 7.875 14 7.875C13.6519 7.875 13.3181 8.01328 13.0719 8.25942C12.8258 8.50556 12.6875 8.8394 12.6875 9.1875ZM14.6562 12.25H13.3438C13.2234 12.25 13.125 12.3484 13.125 12.4688V19.9062C13.125 20.0266 13.2234 20.125 13.3438 20.125H14.6562C14.7766 20.125 14.875 20.0266 14.875 19.9062V12.4688C14.875 12.3484 14.7766 12.25 14.6562 12.25Z" fill="#11B5A4"/>
</svg>
